<svg width="29" height="30" viewBox="0 0 29 30" fill="none" xmlns="http://www.w3.org/2000/svg">
<g clip-path="url(#clip0_3774_7922)">
<path d="M25.375 0C23.6713 0 22.185 1.20833 21.8346 2.85167C21.7742 3.09333 21.75 3.35917 21.75 3.625C21.75 3.73375 21.75 3.85458 21.7742 3.95125C21.7983 4.04792 21.8346 4.14458 21.9071 4.22917L21.9312 4.26542L22.7771 3.41958C23.4779 2.70667 24.6258 2.70667 25.3387 3.41958C26.0396 4.12042 26.0396 5.26833 25.3387 5.98125L24.3237 6.99625C24.3962 7.08083 24.4929 7.12917 24.6138 7.16542C24.8554 7.22583 25.1092 7.25 25.375 7.25C27.3688 7.25 29 5.61875 29 3.625C29 1.63125 27.3688 0 25.375 0Z" fill="#0C111D"/>
<path d="M3.64294 10.875C3.50157 10.8726 3.35173 10.8677 3.20432 10.8508C2.87203 10.8133 2.63519 10.5137 2.67265 10.1814C2.71132 9.85031 3.00615 9.61226 3.34207 9.65093C3.44236 9.66301 3.54507 9.67026 3.64053 9.66664C3.71182 9.66664 3.77948 9.66422 3.84594 9.65697C4.1734 9.63039 4.47307 9.86843 4.50569 10.2007C4.53711 10.533 4.29423 10.8278 3.96194 10.8593C3.85561 10.8701 3.75048 10.875 3.64294 10.875ZM6.04511 9.66543C5.91944 9.66543 5.79257 9.62556 5.68382 9.5446C5.41678 9.34401 5.3624 8.96581 5.56298 8.69876C5.66328 8.56585 5.74907 8.41964 5.82036 8.26618L6.92478 8.75556C6.80998 9.00447 6.67948 9.22318 6.52844 9.42376C6.41003 9.58206 6.22878 9.66543 6.04511 9.66543ZM1.16344 9.6026C0.973734 9.6026 0.787651 9.51439 0.670442 9.34764C0.525442 9.14222 0.400984 8.9211 0.299484 8.6891C0.167776 8.38218 0.307942 8.02693 0.613651 7.89401C0.921776 7.75989 1.27582 7.90247 1.40873 8.20818C1.4764 8.36406 1.55978 8.51268 1.65523 8.64922C1.84857 8.9211 1.78453 9.2981 1.51144 9.49143C1.40632 9.56635 1.28428 9.6026 1.16344 9.6026ZM6.39432 6.63976C6.16111 6.63976 5.93998 6.50443 5.8409 6.27847C5.77323 6.12381 5.68986 5.97639 5.59078 5.83985C5.39623 5.56918 5.45786 5.19097 5.72973 4.99643C5.99919 4.80068 6.37861 4.86351 6.57315 5.13539C6.71936 5.3396 6.84623 5.56072 6.94773 5.79272C7.08065 6.09843 6.94169 6.45489 6.63598 6.58901C6.55744 6.62285 6.47528 6.63976 6.39432 6.63976ZM1.43411 6.23376L0.339359 5.72264C0.440859 5.50151 0.567734 5.28885 0.712734 5.09189C0.913317 4.82364 1.29032 4.76685 1.55857 4.96622C1.82682 5.1656 1.8824 5.54381 1.68423 5.81206C1.58757 5.94135 1.50419 6.08393 1.43411 6.23376ZM3.96557 4.85143C3.94382 4.85143 3.92086 4.85022 3.89911 4.84781C3.72873 4.82847 3.55836 4.82606 3.39282 4.84418C3.05328 4.8756 2.76569 4.63272 2.73307 4.30164C2.70044 3.96935 2.94453 3.67331 3.27561 3.64189C3.52453 3.61772 3.77707 3.61893 4.03082 3.64672C4.3619 3.68297 4.60115 3.98143 4.5649 4.31372C4.53107 4.62306 4.26886 4.85143 3.96557 4.85143Z" fill="#0C111D"/>
<path d="M6.21473 6.29551C5.99844 6.29551 5.7894 6.17951 5.68065 5.9753C5.52357 5.68047 5.63473 5.31435 5.92957 5.15726L6.20627 5.01226C6.50232 4.86001 6.86602 4.97601 7.02069 5.27326C7.17294 5.57051 7.05694 5.93422 6.7609 6.08768L6.49748 6.22422C6.40686 6.27255 6.31019 6.29551 6.21473 6.29551Z" fill="#0C111D"/>
<path d="M8.50325 5.22096C8.26521 5.22096 8.03925 5.07959 7.94379 4.84517C7.81691 4.53705 7.96554 4.18421 8.27366 4.05734L8.8005 3.8483C9.11225 3.72746 9.46146 3.88213 9.58229 4.19388C9.70312 4.50563 9.54846 4.85484 9.23671 4.97567L8.73162 5.17626C8.65671 5.20767 8.57937 5.22096 8.50325 5.22096ZM11.1253 4.30505C10.8631 4.30505 10.6215 4.13346 10.5453 3.87005C10.4523 3.54984 10.636 3.21513 10.9562 3.12088C11.1386 3.06771 11.3211 3.01696 11.5047 2.96863C11.8298 2.88163 12.1585 3.07376 12.2442 3.39638C12.33 3.71901 12.1391 4.05009 11.8165 4.13588C11.6413 4.1818 11.4673 4.23013 11.2933 4.28088C11.2377 4.2978 11.1809 4.30505 11.1253 4.30505ZM13.8296 3.6743C13.542 3.6743 13.287 3.46888 13.2351 3.17526C13.1771 2.8478 13.3958 2.53363 13.7245 2.47442C13.9105 2.44059 14.099 2.40917 14.2863 2.38017C14.621 2.33305 14.9243 2.55538 14.9751 2.88526C15.0258 3.21513 14.7999 3.52326 14.47 3.57401C14.2912 3.6018 14.1135 3.63201 13.9347 3.66342C13.8997 3.67188 13.8646 3.6743 13.8296 3.6743ZM16.5858 3.33596C16.2716 3.33596 16.0058 3.09309 15.984 2.77409C15.9599 2.4418 16.2112 2.1518 16.5435 2.12884C16.7332 2.11555 16.9217 2.10467 17.1114 2.09501C17.4401 2.07446 17.7277 2.33546 17.7434 2.67017C17.7591 3.00367 17.5017 3.28642 17.1682 3.30213C16.9882 3.31059 16.8069 3.32146 16.6269 3.33355C16.6148 3.33476 16.6003 3.33596 16.5858 3.33596ZM19.9196 3.31905C19.9075 3.31905 19.8954 3.31905 19.8845 3.31784L19.3408 3.29246C19.0073 3.28038 18.7475 2.99884 18.7608 2.66534C18.7729 2.33184 19.0798 2.0648 19.3879 2.08534L19.9546 2.11192C20.2869 2.13126 20.5419 2.41642 20.5225 2.74992C20.5044 3.07013 20.2386 3.31905 19.9196 3.31905Z" fill="#0C111D"/>
<path d="M22.4298 3.5886C22.3983 3.5886 22.3669 3.58619 22.3343 3.58135L22.0431 3.53785C21.7132 3.49073 21.4824 3.18502 21.5295 2.85514C21.5767 2.52527 21.8788 2.29206 22.2123 2.3416L22.524 2.38873C22.8527 2.44069 23.0774 2.75002 23.0255 3.07989C22.9783 3.37714 22.721 3.5886 22.4298 3.5886Z" fill="#0C111D"/>
<path d="M15.7976 28.9987C13.6951 28.9987 11.4874 28.0115 9.5384 26.0673C9.53356 26.0625 9.52873 26.0576 9.5239 26.0528C9.52148 26.0504 9.51906 26.048 9.51665 26.0455L7.3924 23.9213C4.94311 21.4333 4.90806 17.957 7.2764 12.9798C8.61765 10.1608 8.56569 8.79054 8.53186 7.88308C8.50648 7.22213 8.48352 6.59742 9.10219 5.97875C9.31606 5.76487 10.4869 4.79821 12.5194 6.83304C13.8159 8.12958 13.9754 10.04 13.8642 11.4694L22.3455 2.98812C23.288 2.04563 24.8202 2.04563 25.7639 2.98812C26.7064 3.93062 26.7064 5.46279 25.7639 6.40529L22.1184 10.0508C22.5231 10.1596 22.8953 10.3722 23.201 10.678C23.6578 11.1347 23.9091 11.7413 23.9091 12.3865C23.9091 12.7551 23.8269 13.1115 23.6723 13.433C24.1387 13.5248 24.5676 13.752 24.9096 14.0951C25.3664 14.5507 25.6177 15.1585 25.6177 15.8037C25.6177 16.449 25.3664 17.0567 24.9096 17.5123L24.68 17.7419C25.0776 17.847 25.4534 18.056 25.7639 18.3678C26.7052 19.3091 26.7052 20.8425 25.7639 21.785L20.6369 26.9119C19.2389 28.31 17.5545 28.9987 15.7976 28.9987ZM10.383 25.2033C12.7477 27.568 16.6241 29.2138 19.7657 26.0733L24.9084 20.9307C25.3796 20.4594 25.3796 19.6933 24.9084 19.2221C24.4371 18.7508 23.6699 18.752 23.1986 19.2221L21.9166 20.5041C21.6809 20.7397 21.2979 20.7397 21.0623 20.5041C20.9439 20.3857 20.8859 20.231 20.8859 20.0764C20.8859 19.9217 20.9451 19.767 21.0623 19.6486L24.0529 16.658C24.2813 16.4296 24.4069 16.1263 24.4069 15.8037C24.4069 15.4811 24.2813 15.1778 24.0529 14.9494C23.5961 14.4927 22.8011 14.4927 22.3443 14.9494L20.208 17.0857C19.9724 17.3214 19.5893 17.3214 19.3537 17.0857C19.2353 16.9673 19.1773 16.8127 19.1773 16.658C19.1773 16.5033 19.2365 16.3487 19.3537 16.2302L22.3443 13.2396C22.8156 12.7684 22.8156 12.0023 22.3443 11.5298C21.8876 11.0731 21.0925 11.0731 20.6357 11.5298L18.4994 13.6662C18.2638 13.9018 17.8807 13.9018 17.6451 13.6662C17.5267 13.5477 17.4687 13.3931 17.4687 13.2384C17.4687 13.0837 17.5279 12.9291 17.6451 12.8107L24.9084 5.54737C25.3796 5.07612 25.3796 4.31004 24.9084 3.83879C24.4371 3.36754 23.6699 3.36754 23.1986 3.83879L13.3724 13.665C13.1767 13.8595 12.8734 13.8957 12.6366 13.7568C12.3997 13.6154 12.2874 13.3302 12.3671 13.0656C12.378 13.0294 13.4184 9.43821 11.6639 7.68371C10.696 6.71825 10.0966 6.69408 9.95648 6.83304C9.71965 7.06867 9.71723 7.22333 9.74019 7.83717C9.77644 8.80021 9.83686 10.4121 8.36873 13.4994C6.24811 17.9557 6.21065 20.9983 8.25152 23.0706L10.383 25.2033Z" fill="#0C111D" stroke="#0C111D" stroke-width="0.8"/>
</g>
<defs>
<clipPath id="clip0_3774_7922">
<rect width="29" height="30" fill="white"/>
</clipPath>
</defs>
</svg>
