<svg width="72" height="55" viewBox="0 0 72 55" fill="none" xmlns="http://www.w3.org/2000/svg">
<rect x="0.75" y="1.25" width="70.5" height="52.5" rx="5.25" stroke="url(#paint0_linear_3690_1192)" stroke-width="1.5"/>
<circle cx="41.9922" cy="28.1" r="12" fill="#CADAF7"/>
<mask id="path-3-inside-1_3690_1192" fill="white">
<path d="M27.5937 41.3C24.4112 41.3 21.3589 39.9093 19.1085 37.4338C16.858 34.9583 15.5937 31.6009 15.5938 28.1C15.5938 24.5991 16.858 21.2417 19.1085 18.7662C21.3589 16.2907 24.4112 14.9 27.5938 14.9V17.0429C24.9278 17.0429 22.3711 18.2078 20.486 20.2814C18.6009 22.355 17.5418 25.1675 17.5418 28.1C17.5418 31.0325 18.6009 33.8449 20.486 35.9186C22.3711 37.9922 24.9278 39.1571 27.5938 39.1571L27.5937 41.3Z"/>
</mask>
<path d="M27.5937 41.3C24.4112 41.3 21.3589 39.9093 19.1085 37.4338C16.858 34.9583 15.5937 31.6009 15.5938 28.1C15.5938 24.5991 16.858 21.2417 19.1085 18.7662C21.3589 16.2907 24.4112 14.9 27.5938 14.9V17.0429C24.9278 17.0429 22.3711 18.2078 20.486 20.2814C18.6009 22.355 17.5418 25.1675 17.5418 28.1C17.5418 31.0325 18.6009 33.8449 20.486 35.9186C22.3711 37.9922 24.9278 39.1571 27.5938 39.1571L27.5937 41.3Z" fill="#D9D9D9" stroke="#4B50FB" stroke-width="3" mask="url(#path-3-inside-1_3690_1192)"/>
<defs>
<linearGradient id="paint0_linear_3690_1192" x1="67.275" y1="4.55" x2="-8.15327" y2="18.2306" gradientUnits="userSpaceOnUse">
<stop stop-color="#A5A9F7"/>
<stop offset="0.310786" stop-color="#4E4EFF"/>
<stop offset="0.549372" stop-color="#385CE5"/>
<stop offset="0.981432" stop-color="#70EFC0"/>
</linearGradient>
</defs>
</svg>
