<svg width="31" height="31" viewBox="0 0 31 31" fill="none" xmlns="http://www.w3.org/2000/svg">
<path d="M12.9193 21.8937H8.02385C3.67094 21.8937 2.58594 20.8087 2.58594 16.4557V8.70574C2.58594 4.35282 3.67094 3.26782 8.02385 3.26782H21.6251C25.978 3.26782 27.063 4.35282 27.063 8.70574" stroke="#0C111D" stroke-width="2" stroke-linecap="round" stroke-linejoin="round"/>
<path d="M12.9141 27.7321V21.8938" stroke="#0C111D" stroke-width="2" stroke-linecap="round" stroke-linejoin="round"/>
<path d="M2.58594 16.7271H12.9193" stroke="#0C111D" stroke-width="2" stroke-linecap="round" stroke-linejoin="round"/>
<path d="M8.70312 27.7322H12.914" stroke="#0C111D" stroke-width="2" stroke-linecap="round" stroke-linejoin="round"/>
<path d="M28.4196 16.5333V23.9087C28.4196 26.97 27.6575 27.732 24.5963 27.732H20.0108C16.9496 27.732 16.1875 26.97 16.1875 23.9087V16.5333C16.1875 13.472 16.9496 12.71 20.0108 12.71H24.5963C27.6575 12.71 28.4196 13.472 28.4196 16.5333Z" stroke="#0C111D" stroke-width="2" stroke-linecap="round" stroke-linejoin="round"/>
<path d="M22.2716 23.5728H22.2832" stroke="#0C111D" stroke-width="2" stroke-linecap="round" stroke-linejoin="round"/>
</svg>
