<svg width="20" height="20" viewBox="0 0 20 20" fill="none" xmlns="http://www.w3.org/2000/svg">
<path d="M20 10C20 10.8533 18.9517 11.5567 18.7417 12.3433C18.525 13.1567 19.0733 14.29 18.6617 15.0017C18.2433 15.725 16.985 15.8117 16.3983 16.3983C15.8117 16.985 15.725 18.2433 15.0017 18.6617C14.29 19.0733 13.1567 18.525 12.3433 18.7417C11.5567 18.9517 10.8533 20 10 20C9.14667 20 8.44333 18.9517 7.65667 18.7417C6.84333 18.525 5.71 19.0733 4.99833 18.6617C4.275 18.2433 4.18833 16.985 3.60167 16.3983C3.015 15.8117 1.75667 15.725 1.33833 15.0017C0.926667 14.29 1.475 13.1567 1.25833 12.3433C1.04833 11.5567 0 10.8533 0 10C0 9.14667 1.04833 8.44333 1.25833 7.65667C1.475 6.84333 0.926667 5.71 1.33833 4.99833C1.75667 4.275 3.015 4.18833 3.60167 3.60167C4.18833 3.015 4.275 1.75667 4.99833 1.33833C5.71 0.926667 6.84333 1.475 7.65667 1.25833C8.44333 1.04833 9.14667 0 10 0C10.8533 0 11.5567 1.04833 12.3433 1.25833C13.1567 1.475 14.29 0.926667 15.0017 1.33833C15.725 1.75667 15.8117 3.015 16.3983 3.60167C16.985 4.18833 18.2433 4.275 18.6617 4.99833C19.0733 5.71 18.525 6.84333 18.7417 7.65667C18.9517 8.44333 20 9.14667 20 10Z" fill="#4B50FB"/>
<path d="M12.8951 7.02047L9.08844 10.8271L7.1151 8.85547C6.68677 8.42714 5.99177 8.42714 5.56344 8.85547C5.1351 9.2838 5.1351 9.9788 5.56344 10.4071L8.33177 13.1755C8.74844 13.5921 9.4251 13.5921 9.84177 13.1755L14.4451 8.57214C14.8734 8.1438 14.8734 7.4488 14.4451 7.02047C14.0168 6.59214 13.3234 6.59214 12.8951 7.02047Z" fill="white"/>
</svg>
