<svg width="74" height="74" viewBox="0 0 74 74" fill="none" xmlns="http://www.w3.org/2000/svg">
<path fill-rule="evenodd" clip-rule="evenodd" d="M62.5833 55.1976H11.4224C8.39421 55.1976 5.92984 52.7347 5.92969 49.7051V14.9847C5.92969 11.9551 8.39406 9.49219 11.4224 9.49219H62.5833C65.6116 9.49219 68.0759 11.9551 68.0759 14.9847V49.7051C68.0759 52.7347 65.6116 55.1976 62.5833 55.1976ZM11.4224 14.5822C11.2 14.5822 11.0198 14.7636 11.0198 14.9847V49.7051C11.0198 49.9262 11.2 50.1077 11.4224 50.1077H62.5833C62.8056 50.1077 62.9858 49.9262 62.9858 49.7051V14.9847C62.9858 14.7636 62.8056 14.5822 62.5833 14.5822H11.4224ZM1.99708 57.2808H72.0029C73.1064 57.2808 74 58.1751 73.9998 59.2788C73.9998 62.1668 71.6587 64.5081 68.7693 64.5081H5.23041C2.34113 64.5081 0 62.1668 0 59.2788C0 58.1753 0.893603 57.2808 1.99708 57.2808Z" fill="url(#paint0_linear_3774_10477)"/>
<rect x="10.9336" y="14.2959" width="52.1364" height="36.1591" rx="1" fill="white"/>
<path d="M33.2108 37.8428C33.3017 38.106 33.5366 38.2924 33.8137 38.3221C34.0896 38.3497 34.3579 38.2178 34.5021 37.9793L36.1958 35.1833L41.4522 40.44C41.5865 40.574 41.769 40.6486 41.9592 40.6486C42.1494 40.6486 42.332 40.574 42.4665 40.44L45.0934 37.8104C45.3732 37.5294 45.3732 37.0771 45.0934 36.7964L39.8379 31.5424L42.6367 29.8475C42.8739 29.7031 43.0083 29.4346 42.9782 29.1587C42.9498 28.8807 42.7633 28.6472 42.5011 28.5549L29.6532 24.0814C29.3923 23.9921 29.1039 24.0567 28.91 24.253C28.7148 24.4469 28.6491 24.7353 28.7384 24.9961L33.2108 37.8428Z" fill="#4B50FB"/>
<defs>
<linearGradient id="paint0_linear_3774_10477" x1="70.5" y1="9" x2="-16.9094" y2="23.5815" gradientUnits="userSpaceOnUse">
<stop stop-color="#A5A9F7"/>
<stop offset="0.310786" stop-color="#4E4EFF"/>
<stop offset="0.549372" stop-color="#385CE5"/>
<stop offset="0.981432" stop-color="#70EFC0"/>
</linearGradient>
</defs>
</svg>
