<svg width="65" height="62" viewBox="0 0 65 62" fill="none" xmlns="http://www.w3.org/2000/svg">
<path d="M59.433 0.380859H5.28804C2.37201 0.380859 0 2.75395 0 5.6689V42.4148C0 45.3298 2.37201 47.703 5.28804 47.703H23.4398V54.7925H20.5756C18.7794 54.7925 17.3238 56.249 17.3238 58.0442C17.3238 59.8392 18.7794 61.2958 20.5756 61.2958H44.1498C45.946 61.2958 47.4014 59.8394 47.4014 58.0442C47.4014 56.2491 45.946 54.7925 44.1498 54.7925H41.2855V47.703H59.433C62.349 47.703 64.721 45.3298 64.721 42.4148V5.6689C64.721 2.75395 62.349 0.380859 59.433 0.380859ZM51.7094 44.4514C50.8943 44.4514 50.236 43.793 50.236 42.9801C50.236 42.1651 50.8944 41.5067 51.7094 41.5067C52.5223 41.5067 53.1806 42.1651 53.1806 42.9801C53.1806 43.793 52.5223 44.4514 51.7094 44.4514ZM58.2126 44.8048C57.2028 44.8048 56.3857 43.9875 56.3857 42.9801C56.3857 41.9702 57.2028 41.153 58.2126 41.153C59.2202 41.153 60.0374 41.9702 60.0374 42.9801C60.0374 43.9875 59.2202 44.8048 58.2126 44.8048ZM60.3856 39.3092H4.33545V5.6689C4.33545 5.14407 4.76308 4.71645 5.28804 4.71645H59.433C59.9581 4.71645 60.3854 5.14407 60.3854 5.6689V39.3092H60.3856Z" fill="url(#paint0_linear_3774_10470)"/>
<rect x="3.98438" y="3.98047" width="56.5202" height="35.4306" rx="1" fill="white"/>
<path d="M34.777 22.5388L37.1606 21.095C37.3627 20.9723 37.4771 20.7436 37.4515 20.5087C37.4272 20.2715 37.2686 20.0725 37.045 19.994L26.1016 16.1835C25.8805 16.1074 25.6338 16.1625 25.4686 16.3296C25.3026 16.4948 25.2463 16.7404 25.3224 16.9626L29.132 27.9052C29.2092 28.1296 29.4093 28.2884 29.6453 28.3137C29.8803 28.337 30.1088 28.2247 30.2317 28.0216L31.6743 25.6399L36.1516 30.1174C36.2661 30.2317 36.4215 30.2951 36.5836 30.2951C36.7455 30.2951 36.901 30.2315 37.0154 30.1174L39.2529 27.8778C39.4911 27.6383 39.4911 27.2532 39.2529 27.0139L34.777 22.5388Z" fill="#4B50FB"/>
<defs>
<linearGradient id="paint0_linear_3774_10470" x1="72.5" y1="1.44959e-06" x2="-18.5677" y2="-0.638683" gradientUnits="userSpaceOnUse">
<stop stop-color="#A5A9F7"/>
<stop offset="0.310786" stop-color="#4E4EFF"/>
<stop offset="0.549372" stop-color="#385CE5"/>
<stop offset="0.981432" stop-color="#70EFC0"/>
</linearGradient>
</defs>
</svg>
