<svg width="64" height="64" viewBox="0 0 64 64" fill="none" xmlns="http://www.w3.org/2000/svg">
<circle cx="16.5" cy="18.5" r="3.5" fill="#CADAF7"/>
<circle cx="11.5" cy="29.5" r="3.5" fill="#CADAF7"/>
<circle cx="28.5" cy="13.5" r="3.5" fill="#CADAF7"/>
<circle cx="44.5" cy="17.5" r="3.5" fill="#CADAF7"/>
<circle cx="32" cy="32" r="31.25" stroke="url(#paint0_linear_3690_1174)" stroke-width="1.5"/>
<path d="M31.9161 21.5C25.3459 21.5 20 26.8459 20 33.4161C20 39.9864 25.3459 45.3323 31.9161 45.3323C34.8718 45.3323 37.576 44.2455 39.6609 42.4571L40.7888 43.585L39.5177 44.8525C39.3458 45.0244 39.2493 45.2575 39.2493 45.5006C39.2493 45.7436 39.3458 45.9767 39.5177 46.1486L47.2267 53.8576C48.0832 54.7141 49.4995 54.7141 50.3561 53.8576L52.3576 51.8561C53.2141 50.9995 53.2141 49.5832 52.3576 48.7267L44.6486 41.0177C44.4767 40.8458 44.2436 40.7493 44.0006 40.7493C43.7575 40.7493 43.5244 40.8458 43.3525 41.0177L42.085 42.2888L40.9571 41.1609C42.7455 39.076 43.8323 36.3718 43.8323 33.4161C43.8323 26.8459 38.4864 21.5 31.9161 21.5ZM31.9161 23.3333C37.4956 23.3333 41.999 27.8367 41.999 33.4161C41.999 38.9956 37.4956 43.499 31.9161 43.499C26.3367 43.499 21.8333 38.9956 21.8333 33.4161C21.8333 27.8367 26.3367 23.3333 31.9161 23.3333ZM44.0006 42.9619L51.0614 50.0228C51.2174 50.1788 51.2174 50.404 51.0614 50.5599L49.0599 52.5614C48.9039 52.7174 48.6788 52.7174 48.5228 52.5614L41.4619 45.5006L44.0006 42.9619Z" fill="#4B50FB"/>
<path d="M36.7684 30.0186L32.8332 33.9538L31.1896 32.3102C30.5862 31.7068 29.5802 31.7068 28.9767 32.3102L25.7684 35.5186C25.5966 35.6905 25.5 35.9236 25.5 36.1667C25.5 36.4098 25.5966 36.6429 25.7684 36.8148C25.9403 36.9867 26.1734 37.0832 26.4165 37.0832C26.6596 37.0832 26.8927 36.9867 27.0646 36.8148L30.0832 33.7962L31.7267 35.4398C32.3302 36.0432 33.3362 36.0432 33.9396 35.4398L38.0646 31.3148C38.2365 31.1429 38.3331 30.9098 38.3331 30.6667C38.3331 30.4236 38.2365 30.1905 38.0646 30.0186C37.8927 29.8467 37.6596 29.7502 37.4165 29.7502C37.1734 29.7502 36.9403 29.8467 36.7684 30.0186Z" fill="#4B50FB"/>
<defs>
<linearGradient id="paint0_linear_3690_1174" x1="59.8" y1="4.8" x2="-8.19476" y2="14.0493" gradientUnits="userSpaceOnUse">
<stop stop-color="#A5A9F7"/>
<stop offset="0.310786" stop-color="#4E4EFF"/>
<stop offset="0.549372" stop-color="#385CE5"/>
<stop offset="0.981432" stop-color="#70EFC0"/>
</linearGradient>
</defs>
</svg>
