<svg width="59" height="66" viewBox="0 0 59 66" fill="none" xmlns="http://www.w3.org/2000/svg">
<path d="M54.3604 31.9464L36.9388 49.368L32.1875 44.0887L49.0812 27.195L54.3604 31.9464Z" fill="#CADAF7"/>
<path d="M18.4583 17.1645H3.14844V15.5807L20.0421 2.38251V15.0527L18.4583 17.1645Z" fill="#CADAF7"/>
<path fill-rule="evenodd" clip-rule="evenodd" d="M17.5051 15.8456H5.09826L10.7656 11.3116L18.7277 4.94199V14.6233C18.7277 15.2983 18.1802 15.8456 17.5051 15.8456ZM21.1726 14.6233V3.62081H43.177C43.8521 3.62081 44.3994 4.16828 44.3994 4.84337V29.9217L31.0495 43.2716C31.0417 43.2794 31.034 43.2873 31.0265 43.2952L29.445 44.877C29.2918 45.0299 29.1822 45.2209 29.127 45.4302L27.2747 52.4689C27.164 52.8894 27.285 53.337 27.5926 53.6446C27.9 53.952 28.3476 54.0731 28.7681 53.9624L35.8069 52.11C36.0161 52.0548 36.2071 51.9452 36.3601 51.7923L37.9655 50.1869C37.9733 50.1791 37.981 50.1712 37.9885 50.1632L44.3994 43.7524V61.0769C44.3994 61.7519 43.8521 62.2992 43.177 62.2992H4.05809C3.383 62.2992 2.83575 61.7519 2.83575 61.0769V18.2905H17.5051C19.5306 18.2905 21.1726 16.6485 21.1726 14.6233ZM33.6431 44.1356L37.1009 47.5933L52.6582 32.0358L49.2007 28.5782L46.7141 31.0648C46.5961 31.2984 46.4054 31.4891 46.1718 31.607L33.6431 44.1356ZM31.4073 46.372L31.9142 45.8651L35.3719 49.3229L34.8651 49.8297L30.1724 51.0646L31.4073 46.372ZM46.8445 4.84337V27.4766L48.2832 26.0379C48.2996 26.0194 48.3167 26.0012 48.3345 25.9834L50.0634 24.2545C51.4957 22.8223 53.8178 22.8223 55.2498 24.2545L56.4171 25.4218L56.9787 25.9834C58.411 27.4155 58.411 29.7376 56.9787 31.1698L55.3043 32.8442C55.2879 32.8628 55.2708 32.881 55.253 32.8987L46.829 41.3227C46.8392 41.3861 46.8445 41.4511 46.8445 41.5174V61.0766C46.8445 63.1021 45.2025 64.7441 43.177 64.7441H4.05809C2.03259 64.7441 0.390625 63.1021 0.390625 61.0769V17.0681V17.0681C0.390625 16.9759 0.401048 16.8849 0.421156 16.7966C0.481158 16.5331 0.62816 16.2904 0.849327 16.1134L0.849416 16.1133L19.1865 1.44396C19.28 1.36909 19.3824 1.30959 19.4901 1.26588C19.6352 1.20688 19.7913 1.1759 19.9501 1.1759H43.177C45.2025 1.1759 46.8445 2.81787 46.8445 4.84337ZM54.387 30.3038L55.2498 29.441C55.7273 28.9637 55.7273 28.1896 55.2498 27.7121L53.5212 25.9834C53.0437 25.5059 52.2698 25.5059 51.7923 25.9834L50.9294 26.8463L54.387 30.3038ZM17.5065 28.0703H10.1718C9.49713 28.0703 8.94922 27.5224 8.94922 26.8477C8.94922 26.1731 9.49713 25.6252 10.1718 25.6252H17.5065C18.1812 25.6252 18.7291 26.1731 18.7291 26.8477C18.7291 27.5224 18.1812 28.0703 17.5065 28.0703ZM10.1718 34.1825H34.6211C35.2957 34.1825 35.8436 33.6348 35.8436 32.9601C35.8436 32.2855 35.2957 31.7376 34.6211 31.7376H10.1718C9.49713 31.7376 8.94922 32.2855 8.94922 32.9601C8.94922 33.6348 9.49713 34.1825 10.1718 34.1825ZM29.7312 40.2948H10.1718C9.49713 40.2948 8.94922 39.7471 8.94922 39.0725C8.94922 38.3976 9.49713 37.8499 10.1718 37.8499H29.7312C30.4059 37.8499 30.9536 38.3976 30.9536 39.0725C30.9536 39.7471 30.4059 40.2948 29.7312 40.2948ZM10.1718 46.4072H26.0638C26.7384 46.4072 27.2863 45.8595 27.2863 45.1847C27.2863 44.51 26.7384 43.9623 26.0638 43.9623H10.1718C9.49713 43.9623 8.94922 44.51 8.94922 45.1847C8.94922 45.8595 9.49713 46.4072 10.1718 46.4072ZM23.6189 52.5196H10.1718C9.49713 52.5196 8.94922 51.9717 8.94922 51.297C8.94922 50.6224 9.49713 50.0747 10.1718 50.0747H23.6189C24.2935 50.0747 24.8414 50.6224 24.8414 51.297C24.8414 51.9717 24.2935 52.5196 23.6189 52.5196Z" fill="#4B50FB"/>
<path d="M5.09826 15.8456L4.84838 15.5332L3.95796 16.2456H5.09826V15.8456ZM10.7656 11.3116L10.5158 10.9992L10.5158 10.9993L10.7656 11.3116ZM18.7277 4.94199H19.1277V4.10974L18.4778 4.62964L18.7277 4.94199ZM21.1726 3.62081V3.22081H20.7726V3.62081H21.1726ZM44.3994 29.9217L44.6822 30.2046L44.7994 30.0874V29.9217H44.3994ZM31.0495 43.2716L31.3323 43.5545L31.3324 43.5544L31.0495 43.2716ZM31.0265 43.2952L31.3095 43.5782L31.3167 43.5705L31.0265 43.2952ZM29.445 44.877L29.7276 45.16L29.7278 45.1598L29.445 44.877ZM29.127 45.4302L28.7402 45.3281L28.7402 45.3284L29.127 45.4302ZM27.2747 52.4689L27.6615 52.5708L27.6615 52.5707L27.2747 52.4689ZM27.5926 53.6446L27.8755 53.3618L27.8755 53.3618L27.5926 53.6446ZM28.7681 53.9624L28.6663 53.5755L28.6663 53.5756L28.7681 53.9624ZM35.8069 52.11L35.9087 52.4969L35.9089 52.4968L35.8069 52.11ZM36.3601 51.7923L36.0772 51.5095H36.0772L36.3601 51.7923ZM37.9655 50.1869L38.2483 50.4697H38.2483L37.9655 50.1869ZM37.9885 50.1632L37.7056 49.8803L37.6983 49.8879L37.9885 50.1632ZM44.3994 43.7524H44.7994V42.7867L44.1165 43.4695L44.3994 43.7524ZM2.83575 18.2905V17.8905H2.43575V18.2905H2.83575ZM37.1009 47.5933L36.818 47.8762L37.1009 48.159L37.3837 47.8762L37.1009 47.5933ZM33.6431 44.1356L33.3602 43.8527L33.0774 44.1356L33.3602 44.4184L33.6431 44.1356ZM52.6582 32.0358L52.9411 32.3186L53.2239 32.0358L52.9411 31.7529L52.6582 32.0358ZM49.2007 28.5782L49.4835 28.2954L49.2007 28.0125L48.9178 28.2954L49.2007 28.5782ZM46.7141 31.0648L46.4312 30.7819L46.3859 30.8273L46.357 30.8845L46.7141 31.0648ZM46.1718 31.607L45.9915 31.25L45.9343 31.2789L45.889 31.3242L46.1718 31.607ZM31.9142 45.8651L32.197 45.5823L31.9142 45.2994L31.6313 45.5823L31.9142 45.8651ZM31.4073 46.372L31.1245 46.0891L31.048 46.1656L31.0205 46.2702L31.4073 46.372ZM35.3719 49.3229L35.6548 49.6057L35.9376 49.3229L35.6548 49.04L35.3719 49.3229ZM34.8651 49.8297L34.9669 50.2166L35.0714 50.189L35.1479 50.1126L34.8651 49.8297ZM30.1724 51.0646L29.7856 50.9628L29.6111 51.626L30.2742 51.4514L30.1724 51.0646ZM46.8445 27.4766H46.4445V28.4423L47.1273 27.7595L46.8445 27.4766ZM48.2832 26.0379L48.566 26.3208L48.5746 26.3122L48.5826 26.3032L48.2832 26.0379ZM48.3345 25.9834L48.6173 26.2663L48.6174 26.2663L48.3345 25.9834ZM50.0634 24.2545L50.3462 24.5374L50.0634 24.2545ZM55.2498 24.2545L54.967 24.5373L54.967 24.5374L55.2498 24.2545ZM56.4171 25.4218L56.7 25.1389L56.7 25.1389L56.4171 25.4218ZM56.9787 25.9834L56.6959 26.2662L56.6959 26.2663L56.9787 25.9834ZM56.9787 31.1698L57.2616 31.4527L56.9787 31.1698ZM55.3043 32.8442L55.0215 32.5614L55.013 32.5699L55.005 32.5789L55.3043 32.8442ZM55.253 32.8987L54.9702 32.6159L55.253 32.8987ZM46.829 41.3227L46.5462 41.0398L46.4018 41.1843L46.4341 41.386L46.829 41.3227ZM0.421156 16.7966L0.811157 16.8855L0.811177 16.8854L0.421156 16.7966ZM0.849327 16.1134L0.684555 15.7489L0.638699 15.7696L0.599408 15.8011L0.849327 16.1134ZM0.849416 16.1133L1.01419 16.4778L1.06002 16.4571L1.09929 16.4257L0.849416 16.1133ZM19.1865 1.44396L19.4363 1.75631L19.4364 1.75627L19.1865 1.44396ZM19.4901 1.26588L19.6406 1.6365L19.6407 1.63643L19.4901 1.26588ZM55.2498 29.441L54.9671 29.158L54.967 29.1581L55.2498 29.441ZM54.387 30.3038L54.1041 30.5867L54.387 30.8695L54.6698 30.5867L54.387 30.3038ZM55.2498 27.7121L54.967 27.9949H54.967L55.2498 27.7121ZM53.5212 25.9834L53.2383 26.2663L53.5212 25.9834ZM51.7923 25.9834L52.0751 26.2663L52.0751 26.2663L51.7923 25.9834ZM50.9294 26.8463L50.6466 26.5634L50.3637 26.8463L50.6466 27.1291L50.9294 26.8463ZM5.09826 16.2456H17.5051V15.4456H5.09826V16.2456ZM10.5158 10.9993L4.84838 15.5332L5.34814 16.1579L11.0155 11.6239L10.5158 10.9993ZM18.4778 4.62964L10.5158 10.9992L11.0155 11.6239L18.9775 5.25434L18.4778 4.62964ZM19.1277 14.6233V4.94199H18.3277V14.6233H19.1277ZM17.5051 16.2456C18.401 16.2456 19.1277 15.5194 19.1277 14.6233H18.3277C18.3277 15.0773 17.9594 15.4456 17.5051 15.4456V16.2456ZM20.7726 3.62081V14.6233H21.5726V3.62081H20.7726ZM43.177 3.22081H21.1726V4.02081H43.177V3.22081ZM44.7994 4.84337C44.7994 3.94746 44.0731 3.22081 43.177 3.22081V4.02081C43.6311 4.02081 43.9994 4.3891 43.9994 4.84337H44.7994ZM44.7994 29.9217V4.84337H43.9994V29.9217H44.7994ZM31.3324 43.5544L44.6822 30.2046L44.1165 29.6389L30.7667 42.9887L31.3324 43.5544ZM31.3167 43.5705C31.3219 43.5651 31.3271 43.5597 31.3323 43.5545L30.7667 42.9887C30.7564 42.9991 30.7462 43.0095 30.7363 43.02L31.3167 43.5705ZM29.7278 45.1598L31.3094 43.5781L30.7436 43.0124L29.1621 44.5942L29.7278 45.1598ZM29.5138 45.5323C29.551 45.3911 29.6248 45.2627 29.7276 45.16L29.1623 44.5939C28.9588 44.7972 28.8135 45.0507 28.7402 45.3281L29.5138 45.5323ZM27.6615 52.5707L29.5138 45.532L28.7402 45.3284L26.8878 52.3671L27.6615 52.5707ZM27.8755 53.3618C27.6684 53.1547 27.587 52.8536 27.6615 52.5708L26.8878 52.3671C26.7409 52.9253 26.9016 53.5193 27.3098 53.9275L27.8755 53.3618ZM28.6663 53.5756C28.3834 53.65 28.0823 53.5686 27.8755 53.3618L27.3098 53.9275C27.7178 54.3355 28.3118 54.4961 28.8699 54.3492L28.6663 53.5756ZM35.7051 51.7232L28.6663 53.5755L28.8699 54.3492L35.9087 52.4969L35.7051 51.7232ZM36.0772 51.5095C35.9745 51.6122 35.8459 51.686 35.7048 51.7233L35.9089 52.4968C36.1863 52.4236 36.4398 52.2783 36.6429 52.0751L36.0772 51.5095ZM37.6827 49.904L36.0772 51.5095L36.6429 52.0751L38.2483 50.4697L37.6827 49.904ZM37.6983 49.8879C37.6932 49.8934 37.6879 49.8988 37.6826 49.904L38.2483 50.4697C38.2587 50.4594 38.2688 50.449 38.2787 50.4385L37.6983 49.8879ZM44.1165 43.4695L37.7057 49.8804L38.2714 50.4461L44.6822 44.0352L44.1165 43.4695ZM44.7994 61.0769V43.7524H43.9994V61.0769H44.7994ZM43.177 62.6992C44.073 62.6992 44.7994 61.9729 44.7994 61.0769H43.9994C43.9994 61.531 43.6312 61.8992 43.177 61.8992V62.6992ZM4.05809 62.6992H43.177V61.8992H4.05809V62.6992ZM2.43575 61.0769C2.43575 61.9729 3.16209 62.6992 4.05809 62.6992V61.8992C3.60391 61.8992 3.23575 61.531 3.23575 61.0769H2.43575ZM2.43575 18.2905V61.0769H3.23575V18.2905H2.43575ZM17.5051 17.8905H2.83575V18.6905H17.5051V17.8905ZM20.7726 14.6233C20.7726 16.4276 19.3097 17.8905 17.5051 17.8905V18.6905C19.7515 18.6905 21.5726 16.8695 21.5726 14.6233H20.7726ZM37.3837 47.3105L33.9259 43.8527L33.3602 44.4184L36.818 47.8762L37.3837 47.3105ZM52.3754 31.7529L36.818 47.3105L37.3837 47.8762L52.9411 32.3186L52.3754 31.7529ZM48.9178 28.8611L52.3754 32.3186L52.9411 31.7529L49.4835 28.2954L48.9178 28.8611ZM46.9969 31.3476L49.4835 28.8611L48.9178 28.2954L46.4312 30.7819L46.9969 31.3476ZM46.3521 31.9641C46.662 31.8076 46.9147 31.555 47.0711 31.2451L46.357 30.8845C46.2776 31.0418 46.1488 31.1705 45.9915 31.25L46.3521 31.9641ZM33.9259 44.4184L46.4546 31.8899L45.889 31.3242L33.3602 43.8527L33.9259 44.4184ZM31.6313 45.5823L31.1245 46.0891L31.6902 46.6548L32.197 46.1479L31.6313 45.5823ZM35.6548 49.04L32.197 45.5823L31.6313 46.148L35.0891 49.6057L35.6548 49.04ZM35.1479 50.1126L35.6548 49.6057L35.0891 49.04L34.5822 49.5469L35.1479 50.1126ZM30.2742 51.4514L34.9669 50.2166L34.7633 49.4429L30.0706 50.6778L30.2742 51.4514ZM31.0205 46.2702L29.7856 50.9628L30.5593 51.1664L31.7941 46.4738L31.0205 46.2702ZM47.2445 27.4766V4.84337H46.4445V27.4766H47.2445ZM48.0004 25.7551L46.5617 27.1938L47.1273 27.7595L48.566 26.3208L48.0004 25.7551ZM48.0517 25.7006C48.0282 25.7241 48.0056 25.7481 47.9838 25.7727L48.5826 26.3032C48.5937 26.2906 48.6053 26.2783 48.6173 26.2663L48.0517 25.7006ZM49.7806 23.9717L48.0517 25.7006L48.6174 26.2663L50.3462 24.5374L49.7806 23.9717ZM55.5327 23.9717C53.9444 22.3832 51.369 22.3832 49.7806 23.9717L50.3462 24.5374C51.6223 23.2613 53.6912 23.2613 54.967 24.5373L55.5327 23.9717ZM56.7 25.1389L55.5327 23.9717L54.967 24.5374L56.1343 25.7046L56.7 25.1389ZM57.2616 25.7006L56.7 25.1389L56.1343 25.7046L56.6959 26.2662L57.2616 25.7006ZM57.2616 31.4527C58.85 29.8642 58.8501 27.2888 57.2615 25.7005L56.6959 26.2663C57.9719 27.5421 57.9719 29.6109 56.6959 30.887L57.2616 31.4527ZM55.5872 33.1271L57.2616 31.4527L56.6959 30.887L55.0215 32.5614L55.5872 33.1271ZM55.5359 33.1816C55.5593 33.1581 55.5819 33.1341 55.6037 33.1095L55.005 32.5789C54.9938 32.5915 54.9822 32.6038 54.9702 32.6159L55.5359 33.1816ZM47.1119 41.6055L55.5359 33.1816L54.9702 32.6159L46.5462 41.0398L47.1119 41.6055ZM47.2445 41.5174C47.2445 41.4299 47.2375 41.3437 47.224 41.2594L46.4341 41.386C46.4409 41.4286 46.4445 41.4724 46.4445 41.5174H47.2445ZM47.2445 61.0766V41.5174H46.4445V61.0766H47.2445ZM43.177 65.1441C45.4234 65.1441 47.2445 63.323 47.2445 61.0766H46.4445C46.4445 62.8812 44.9816 64.3441 43.177 64.3441V65.1441ZM4.05809 65.1441H43.177V64.3441H4.05809V65.1441ZM-0.00937501 61.0769C-0.00937501 63.3231 1.81169 65.1441 4.05809 65.1441V64.3441C2.25349 64.3441 0.790625 62.8812 0.790625 61.0769H-0.00937501ZM-0.00937501 17.0681V61.0769H0.790625V17.0681H-0.00937501ZM-0.00937501 17.0681V17.0681H0.790625V17.0681H-0.00937501ZM0.0311546 16.7078C0.00445864 16.8249 -0.00937501 16.9457 -0.00937501 17.0681H0.790625C0.790625 17.006 0.797637 16.9448 0.811157 16.8855L0.0311546 16.7078ZM0.599408 15.8011C0.305838 16.036 0.110708 16.3583 0.0311341 16.7079L0.811177 16.8854C0.851608 16.7078 0.950483 16.5447 1.09925 16.4257L0.599408 15.8011ZM0.684643 15.7489L0.684555 15.7489L1.0141 16.4779L1.01419 16.4778L0.684643 15.7489ZM18.9366 1.13161L0.59954 15.801L1.09929 16.4257L19.4363 1.75631L18.9366 1.13161ZM19.3396 0.895258C19.1966 0.953325 19.0606 1.03234 18.9365 1.13165L19.4364 1.75627C19.4994 1.70583 19.5682 1.66586 19.6406 1.6365L19.3396 0.895258ZM19.9501 0.775903C19.7392 0.775903 19.532 0.817049 19.3394 0.895329L19.6407 1.63643C19.7384 1.59672 19.8434 1.5759 19.9501 1.5759V0.775903ZM43.177 0.775903H19.9501V1.5759H43.177V0.775903ZM47.2445 4.84337C47.2445 2.59696 45.4234 0.775903 43.177 0.775903V1.5759C44.9816 1.5759 46.4445 3.03878 46.4445 4.84337H47.2445ZM54.967 29.1581L54.1041 30.021L54.6698 30.5867L55.5327 29.7238L54.967 29.1581ZM54.967 27.9949C55.2883 28.3162 55.2882 28.837 54.9671 29.158L55.5326 29.7239C56.1664 29.0903 56.1663 28.0629 55.5327 27.4292L54.967 27.9949ZM53.2383 26.2663L54.967 27.9949L55.5327 27.4292L53.804 25.7006L53.2383 26.2663ZM52.0751 26.2663C52.3964 25.945 52.917 25.945 53.2383 26.2663L53.804 25.7006C53.1703 25.0669 52.1432 25.0669 51.5094 25.7006L52.0751 26.2663ZM51.2123 27.1291L52.0751 26.2663L51.5094 25.7006L50.6466 26.5634L51.2123 27.1291ZM54.6698 30.021L51.2123 26.5634L50.6466 27.1291L54.1041 30.5867L54.6698 30.021ZM10.1718 28.4703H17.5065V27.6703H10.1718V28.4703ZM8.54922 26.8477C8.54922 27.7433 9.27621 28.4703 10.1718 28.4703V27.6703C9.71804 27.6703 9.34922 27.3015 9.34922 26.8477H8.54922ZM10.1718 25.2252C9.27621 25.2252 8.54922 25.9522 8.54922 26.8477H9.34922C9.34922 26.394 9.71804 26.0252 10.1718 26.0252V25.2252ZM17.5065 25.2252H10.1718V26.0252H17.5065V25.2252ZM19.1291 26.8477C19.1291 25.9522 18.4021 25.2252 17.5065 25.2252V26.0252C17.9602 26.0252 18.3291 26.394 18.3291 26.8477H19.1291ZM17.5065 28.4703C18.4021 28.4703 19.1291 27.7433 19.1291 26.8477H18.3291C18.3291 27.3015 17.9602 27.6703 17.5065 27.6703V28.4703ZM34.6211 33.7825H10.1718V34.5825H34.6211V33.7825ZM35.4436 32.9601C35.4436 33.4138 35.0749 33.7825 34.6211 33.7825V34.5825C35.5165 34.5825 36.2436 33.8558 36.2436 32.9601H35.4436ZM34.6211 32.1376C35.0748 32.1376 35.4436 32.5064 35.4436 32.9601H36.2436C36.2436 32.0646 35.5166 31.3376 34.6211 31.3376V32.1376ZM10.1718 32.1376H34.6211V31.3376H10.1718V32.1376ZM9.34922 32.9601C9.34922 32.5064 9.71804 32.1376 10.1718 32.1376V31.3376C9.27621 31.3376 8.54922 32.0646 8.54922 32.9601H9.34922ZM10.1718 33.7825C9.71795 33.7825 9.34922 33.4138 9.34922 32.9601H8.54922C8.54922 33.8558 9.27631 34.5825 10.1718 34.5825V33.7825ZM10.1718 40.6948H29.7312V39.8948H10.1718V40.6948ZM8.54922 39.0725C8.54922 39.9681 9.27631 40.6948 10.1718 40.6948V39.8948C9.71795 39.8948 9.34922 39.5261 9.34922 39.0725H8.54922ZM10.1718 37.4499C9.27626 37.4499 8.54922 38.1766 8.54922 39.0725H9.34922C9.34922 38.6186 9.71799 38.2499 10.1718 38.2499V37.4499ZM29.7312 37.4499H10.1718V38.2499H29.7312V37.4499ZM31.3536 39.0725C31.3536 38.1767 30.6269 37.4499 29.7312 37.4499V38.2499C30.1849 38.2499 30.5536 38.6185 30.5536 39.0725H31.3536ZM29.7312 40.6948C30.6268 40.6948 31.3536 39.968 31.3536 39.0725H30.5536C30.5536 39.5262 30.185 39.8948 29.7312 39.8948V40.6948ZM26.0638 46.0072H10.1718V46.8072H26.0638V46.0072ZM26.8863 45.1847C26.8863 45.6386 26.5176 46.0072 26.0638 46.0072V46.8072C26.9593 46.8072 27.6863 46.0805 27.6863 45.1847H26.8863ZM26.0638 44.3623C26.5176 44.3623 26.8863 44.731 26.8863 45.1847H27.6863C27.6863 44.289 26.9592 43.5623 26.0638 43.5623V44.3623ZM10.1718 44.3623H26.0638V43.5623H10.1718V44.3623ZM9.34922 45.1847C9.34922 44.731 9.71795 44.3623 10.1718 44.3623V43.5623C9.27631 43.5623 8.54922 44.289 8.54922 45.1847H9.34922ZM10.1718 46.0072C9.718 46.0072 9.34922 45.6386 9.34922 45.1847H8.54922C8.54922 46.0805 9.27626 46.8072 10.1718 46.8072V46.0072ZM10.1718 52.9196H23.6189V52.1196H10.1718V52.9196ZM8.54922 51.297C8.54922 52.1926 9.27621 52.9196 10.1718 52.9196V52.1196C9.71804 52.1196 9.34922 51.7508 9.34922 51.297H8.54922ZM10.1718 49.6747C9.27631 49.6747 8.54922 50.4014 8.54922 51.297H9.34922C9.34922 50.8434 9.71795 50.4747 10.1718 50.4747V49.6747ZM23.6189 49.6747H10.1718V50.4747H23.6189V49.6747ZM25.2414 51.297C25.2414 50.4014 24.5143 49.6747 23.6189 49.6747V50.4747C24.0727 50.4747 24.4414 50.8434 24.4414 51.297H25.2414ZM23.6189 52.9196C24.5144 52.9196 25.2414 52.1926 25.2414 51.297H24.4414C24.4414 51.7508 24.0726 52.1196 23.6189 52.1196V52.9196Z" fill="white"/>
<path d="M49.5 26.5L54 31.5C54.1667 31.6667 54.5 31.9 54.5 31.5C54.5 31 55 31 55.5 31C56 31 56 30.5 56.5 30L57.5 29L57 28L56 26.5C55.6667 26.1667 54.9 25.5 54.5 25.5C54 25.5 54 24.5 53.5 24.5H52.5L49.5 26.5Z" fill="#4B50FB"/>
<path fill-rule="evenodd" clip-rule="evenodd" d="M17.5051 18.2905C19.5306 18.2905 21.1726 16.6485 21.1726 14.6232C21.1726 10.4501 21.1726 2.3985 21.1726 2.3985C21.1726 1.92849 20.9032 1.50028 20.4796 1.29674C20.0561 1.0932 19.5533 1.15041 19.1865 1.44395L0.849327 16.1134C0.444007 16.4377 0.287776 16.9828 0.45963 17.4726C0.631484 17.9626 1.09402 18.2905 1.6131 18.2905H17.5051ZM18.7277 4.94199L5.09815 15.8456H17.5051C18.1802 15.8456 18.7277 15.2983 18.7277 14.6232V4.94199Z" fill="url(#paint0_linear_3721_1036)" stroke="white" stroke-width="0.8"/>
<path fill-rule="evenodd" clip-rule="evenodd" d="M2.83575 17.6556V61.0769C2.83575 61.7519 3.383 62.2992 4.05809 62.2992H43.177C43.8521 62.2992 44.3994 61.7519 44.3994 61.0769C44.3994 55.3441 44.3994 41.5174 44.3994 41.5174C44.3994 40.8425 44.9473 40.2948 45.6219 40.2948C46.2966 40.2948 46.8445 40.8425 46.8445 41.5174V61.0766C46.8445 63.1021 45.2025 64.7441 43.177 64.7441C35.4735 64.7441 11.7616 64.7441 4.05809 64.7441C2.03259 64.7441 0.390625 63.1021 0.390625 61.0769C0.390625 51.5005 0.390625 17.0681 0.390625 17.0681C0.390625 16.6967 0.559618 16.3455 0.849416 16.1133L19.1865 1.44392C19.4033 1.27052 19.6726 1.1759 19.9501 1.1759H43.177C45.2025 1.1759 46.8445 2.81787 46.8445 4.84337V30.5152C46.8445 31.1899 46.2966 31.7376 45.6219 31.7376C44.9473 31.7376 44.3994 31.1899 44.3994 30.5152C44.3994 30.5152 44.3994 11.6832 44.3994 4.84337C44.3994 4.16828 43.8521 3.62081 43.177 3.62081H20.379L2.83575 17.6556Z" fill="url(#paint1_linear_3721_1036)" stroke="white" stroke-width="0.8"/>
<defs>
<linearGradient id="paint0_linear_3721_1036" x1="19.8088" y1="2.45967" x2="-2.08165" y2="6.07552" gradientUnits="userSpaceOnUse">
<stop stop-color="#A5A9F7"/>
<stop offset="0.310786" stop-color="#4E4EFF"/>
<stop offset="0.549372" stop-color="#385CE5"/>
<stop offset="0.981432" stop-color="#70EFC0"/>
</linearGradient>
<linearGradient id="paint1_linear_3721_1036" x1="43.796" y1="5.94352" x2="-5.97885" y2="10.8915" gradientUnits="userSpaceOnUse">
<stop stop-color="#A5A9F7"/>
<stop offset="0.310786" stop-color="#4E4EFF"/>
<stop offset="0.549372" stop-color="#385CE5"/>
<stop offset="0.981432" stop-color="#70EFC0"/>
</linearGradient>
</defs>
</svg>
