<svg width="61" height="62" viewBox="0 0 61 62" fill="none" xmlns="http://www.w3.org/2000/svg">
<mask id="path-1-outside-1_3726_1073" maskUnits="userSpaceOnUse" x="0" y="0" width="61" height="62" fill="black">
<rect fill="white" width="61" height="62"/>
<path fill-rule="evenodd" clip-rule="evenodd" d="M2.37398 7.02904C2.37398 4.46237 4.46247 2.37393 7.02918 2.37393H54.4378C57.0044 2.37393 59.093 4.46233 59.093 7.02904L59.093 13.6283L2.374 13.6283L2.37398 7.02904ZM1.0001 14.3271L1 54.9709C1 58.295 3.70399 61 7.02918 61H54.4377C57.7618 61 60.467 58.295 60.467 54.9709L60.4669 7.02911C60.4669 3.70388 57.762 1 54.4378 1H7.0291C3.70388 1 1.00012 3.70388 1.00012 7.02911L1.0001 14.3037C1.00003 14.3076 1 14.3114 1 14.3153C1 14.3192 1.00003 14.3232 1.0001 14.3271ZM2.374 15.0023H59.093L59.0929 54.9708C59.0929 57.5375 57.0045 59.6259 54.4378 59.6259H7.0291C4.46239 59.6259 2.3741 57.5375 2.3741 54.9708L2.374 15.0023Z"/>
</mask>
<path fill-rule="evenodd" clip-rule="evenodd" d="M2.37398 7.02904C2.37398 4.46237 4.46247 2.37393 7.02918 2.37393H54.4378C57.0044 2.37393 59.093 4.46233 59.093 7.02904L59.093 13.6283L2.374 13.6283L2.37398 7.02904ZM1.0001 14.3271L1 54.9709C1 58.295 3.70399 61 7.02918 61H54.4377C57.7618 61 60.467 58.295 60.467 54.9709L60.4669 7.02911C60.4669 3.70388 57.762 1 54.4378 1H7.0291C3.70388 1 1.00012 3.70388 1.00012 7.02911L1.0001 14.3037C1.00003 14.3076 1 14.3114 1 14.3153C1 14.3192 1.00003 14.3232 1.0001 14.3271ZM2.374 15.0023H59.093L59.0929 54.9708C59.0929 57.5375 57.0045 59.6259 54.4378 59.6259H7.0291C4.46239 59.6259 2.3741 57.5375 2.3741 54.9708L2.374 15.0023Z" fill="url(#paint0_linear_3726_1073)"/>
<path d="M2.37398 7.02904H2.27398V7.02904L2.37398 7.02904ZM59.093 7.02904H59.193H59.093ZM59.093 13.6283V13.7283H59.193V13.6283H59.093ZM2.374 13.6283H2.274L2.274 13.7283H2.374L2.374 13.6283ZM1 54.9709H0.9H1ZM1.0001 14.3271H1.10011L1.10008 14.3254L1.0001 14.3271ZM60.467 54.9709H60.567H60.467ZM60.4669 7.02911H60.3669V7.02911L60.4669 7.02911ZM1.00012 7.02911L1.10012 7.02911V7.02911H1.00012ZM1.0001 14.3037L1.1001 14.3054L1.1001 14.3037H1.0001ZM1 14.3153L0.9 14.3153V14.3153H1ZM59.093 15.0023H59.193V14.9023H59.093V15.0023ZM2.374 15.0023V14.9023H2.274L2.274 15.0023H2.374ZM59.0929 54.9708H58.9929H59.0929ZM2.3741 54.9708H2.4741H2.3741ZM7.02918 2.27393C4.40725 2.27393 2.27398 4.40714 2.27398 7.02904H2.47398C2.47398 4.5176 4.5177 2.47393 7.02918 2.47393V2.27393ZM54.4378 2.27393H7.02918V2.47393H54.4378V2.27393ZM59.193 7.02904C59.193 4.4071 57.0597 2.27393 54.4378 2.27393V2.47393C56.9492 2.47393 58.993 4.51757 58.993 7.02904H59.193ZM59.193 13.6283L59.193 7.02904H58.993L58.993 13.6283H59.193ZM2.374 13.7283L59.093 13.7283V13.5283L2.374 13.5283L2.374 13.7283ZM2.27398 7.02904L2.274 13.6283H2.474L2.47398 7.02904L2.27398 7.02904ZM1.1 54.9709L1.1001 14.3271H0.900099L0.9 54.9709H1.1ZM7.02918 60.9C3.75923 60.9 1.1 58.2397 1.1 54.9709H0.9C0.9 58.3502 3.64875 61.1 7.02918 61.1V60.9ZM54.4377 60.9H7.02918V61.1H54.4377V60.9ZM60.367 54.9709C60.367 58.2397 57.7066 60.9 54.4377 60.9V61.1C57.817 61.1 60.567 58.3502 60.567 54.9709H60.367ZM60.3669 7.02911L60.367 54.9709H60.567L60.5669 7.02911L60.3669 7.02911ZM54.4378 1.1C57.7067 1.1 60.3669 3.75912 60.3669 7.02911H60.5669C60.5669 3.64864 57.8172 0.9 54.4378 0.9V1.1ZM7.0291 1.1H54.4378V0.9H7.0291V1.1ZM1.10012 7.02911C1.10012 3.7591 3.75911 1.1 7.0291 1.1V0.9C3.64864 0.9 0.900117 3.64865 0.900117 7.02911H1.10012ZM1.1001 14.3037L1.10012 7.02911L0.900117 7.02911L0.900099 14.3037H1.1001ZM1.1 14.3153C1.1 14.312 1.10003 14.3087 1.10009 14.3054L0.900113 14.302C0.900039 14.3064 0.900001 14.3109 0.9 14.3153L1.1 14.3153ZM1.10008 14.3254C1.10003 14.322 1.1 14.3187 1.1 14.3153H0.9C0.9 14.3198 0.900038 14.3243 0.900113 14.3288L1.10008 14.3254ZM59.093 14.9023H2.374V15.1023H59.093V14.9023ZM59.1929 54.9708L59.193 15.0023H58.993L58.9929 54.9708H59.1929ZM54.4378 59.7259C57.0597 59.7259 59.1929 57.5928 59.1929 54.9708H58.9929C58.9929 57.4823 56.9492 59.5259 54.4378 59.5259V59.7259ZM7.0291 59.7259H54.4378V59.5259H7.0291V59.7259ZM2.2741 54.9708C2.2741 57.5928 4.40716 59.7259 7.0291 59.7259V59.5259C4.51762 59.5259 2.4741 57.4823 2.4741 54.9708H2.2741ZM2.274 15.0023L2.2741 54.9708H2.4741L2.474 15.0023H2.274Z" fill="url(#paint1_linear_3726_1073)" mask="url(#path-1-outside-1_3726_1073)"/>
<path d="M8.86777 9.04709V9.14709H8.96777H13.4833H13.5833V9.04709V6.95389V6.85389H13.4833H8.96777H8.86777V6.95389V9.04709ZM14.1703 10.3211H8.2808C7.95668 10.3211 7.69375 10.0592 7.69375 9.73407L7.69379 6.26691C7.69379 5.94283 7.95673 5.6799 8.28076 5.6799H14.1703C14.4944 5.6799 14.7573 5.94284 14.7573 6.26691V9.73407C14.7573 10.0592 14.4945 10.3211 14.1703 10.3211Z" fill="#CADAF7" stroke="#CADAF7" stroke-width="0.2"/>
<rect x="8.96875" y="6" width="5" height="4" fill="#CADAF7"/>
<path d="M19.1959 9.04709V9.14709H19.2959H23.8104H23.9104V9.04709V6.95389V6.85389H23.8104H19.2959H19.1959V6.95389V9.04709ZM24.4974 10.3211H18.6089C18.2837 10.3211 18.0219 10.0593 18.0219 9.73407L18.0219 6.26691C18.0219 5.94271 18.2837 5.6799 18.6089 5.6799H24.4974C24.8213 5.6799 25.0842 5.94283 25.0842 6.26691L25.0844 9.73407C25.0844 10.0592 24.8214 10.3211 24.4974 10.3211Z" fill="#CADAF7" stroke="#CADAF7" stroke-width="0.2"/>
<rect x="18.9688" y="6" width="5" height="4" fill="#CADAF7"/>
<rect x="28.9688" y="6" width="6" height="4" fill="#CADAF7"/>
<path d="M29.524 9.04709V9.14709H29.624H34.1385H34.2385V9.04709V6.95389V6.85389H34.1385H29.624H29.524V6.95389V9.04709ZM34.8255 10.3211H28.9371C28.613 10.3211 28.35 10.0592 28.35 9.73407L28.35 6.26691C28.35 5.94283 28.613 5.6799 28.937 5.6799H34.8255C35.1495 5.6799 35.4124 5.94282 35.4124 6.26691L35.4125 9.73407C35.4125 10.0592 35.1496 10.3211 34.8255 10.3211Z" fill="#CADAF7" stroke="#CADAF7" stroke-width="0.2"/>
<path d="M41.1107 42.5551C41.0647 42.5938 41.0186 42.6302 40.9726 42.6665C40.8999 42.7247 41.1616 42.5212 41.0816 42.5817C41.0671 42.5914 41.0525 42.6035 41.038 42.6132C41.0065 42.6375 40.975 42.6617 40.9435 42.6835C40.866 42.7392 40.7885 42.7949 40.711 42.8506C40.2241 43.1922 39.7129 43.4998 39.1873 43.7784C38.7876 43.9892 38.3782 44.183 37.9615 44.3598C38.0197 44.3356 38.0778 44.3113 38.1359 44.2871C37.2566 44.6578 36.3433 44.946 35.4107 45.1374C35.1176 45.198 34.8221 45.2464 34.5265 45.2876C34.5919 45.2779 34.6549 45.2706 34.7203 45.2609C33.606 45.4087 32.4771 45.4136 31.3628 45.2634C31.4282 45.2731 31.4912 45.2803 31.5566 45.29C30.4278 45.135 29.328 44.8249 28.2815 44.384L28.4559 44.4567C27.8406 44.1951 27.2447 43.8923 26.673 43.5483C26.3678 43.3666 26.0674 43.1728 25.7743 42.9717C25.6192 42.8652 25.4666 42.7561 25.314 42.6423C25.2438 42.589 25.1711 42.5357 25.1008 42.4824C25.0839 42.4679 25.0645 42.4558 25.0476 42.4412C24.9846 42.3928 25.1081 42.4897 25.1057 42.4873C25.0645 42.4533 25.0233 42.4219 24.9821 42.3904C24.6212 42.1045 24.27 41.8041 23.9284 41.4941C23.6377 41.23 23.1895 41.2058 22.9013 41.4941C22.1237 42.2717 21.3437 43.0517 20.5661 43.8293C20.457 43.9383 20.3456 44.0497 20.2366 44.1587C20.6508 44.3307 21.0627 44.5003 21.4769 44.6723C21.4769 44.355 21.4769 44.0352 21.4769 43.7179C21.4769 42.9572 21.4769 42.199 21.4769 41.4383C21.4769 40.5202 21.4769 39.5997 21.4769 38.6816C21.4769 37.8846 21.4769 37.0852 21.4769 36.2883C21.4769 35.9031 21.489 35.5131 21.4769 35.1279C21.4769 35.1231 21.4769 35.1158 21.4769 35.111C21.2346 35.3532 20.9924 35.5954 20.7502 35.8377H21.7046H23.9841H26.7408H29.1342C29.5194 35.8377 29.9094 35.8498 30.2945 35.8377H30.3115C30.1395 35.4235 29.9699 35.0116 29.7979 34.5974C29.0203 35.375 28.2427 36.1526 27.4651 36.9302C27.3561 37.0392 27.2471 37.1482 27.1381 37.2572C26.8668 37.5285 26.8498 38.0155 27.1381 38.2843C28.5649 39.6167 30.1104 40.8424 31.7892 41.838C33.0319 42.5745 34.3642 43.1898 35.7498 43.6016C36.7648 43.902 37.8234 44.0909 38.882 44.1345C39.5967 44.1636 40.3137 44.1127 41.0162 43.9819C41.2851 43.931 41.5564 43.8705 41.8132 43.7736C41.8156 43.7711 41.8205 43.7711 41.8229 43.7687C42.0046 43.6936 42.1523 43.6113 42.2565 43.4344C42.3485 43.2794 42.3873 43.0493 42.3292 42.8748C42.2735 42.698 42.1644 42.5284 41.9949 42.4412C41.835 42.3564 41.6121 42.2959 41.4353 42.3686C41.2052 42.463 40.9557 42.5163 40.7134 42.5648C40.5632 42.5938 40.413 42.6181 40.2604 42.6399C40.3258 42.6302 40.3888 42.6229 40.4542 42.6132C39.822 42.698 39.18 42.7077 38.5429 42.6617C38.3152 42.6447 38.0875 42.6205 37.8622 42.5914C37.9276 42.6011 37.9906 42.6084 38.056 42.6181C37.1573 42.4969 36.2731 42.2692 35.418 41.9664C35.1321 41.8647 34.8487 41.7533 34.5677 41.637L34.7421 41.7097C33.9064 41.356 33.0973 40.9345 32.3221 40.4645C31.8788 40.1956 31.4452 39.9098 31.0213 39.6094C30.7936 39.4495 30.5707 39.2848 30.3478 39.1177C30.2921 39.0765 30.2388 39.0329 30.1807 38.9917C30.3672 39.1298 30.1686 38.982 30.1274 38.9505C30.0087 38.856 29.89 38.764 29.7737 38.6671C29.2214 38.2165 28.6836 37.7466 28.1628 37.2597V38.2868C28.9404 37.5092 29.718 36.7316 30.4956 35.954C30.6046 35.845 30.7136 35.7359 30.8226 35.6269C31.031 35.4186 31.0867 35.0988 30.9728 34.8324C30.8614 34.5683 30.5998 34.3867 30.3091 34.3867C29.9917 34.3867 29.672 34.3867 29.3546 34.3867C28.594 34.3867 27.8358 34.3867 27.0751 34.3867C26.157 34.3867 25.2365 34.3867 24.3184 34.3867C23.5214 34.3867 22.722 34.3867 21.925 34.3867C21.5374 34.3867 21.1523 34.3794 20.7647 34.3867C20.7598 34.3867 20.7526 34.3867 20.7477 34.3867C20.3553 34.3867 20.021 34.7185 20.021 35.1134V36.0678V38.3473V41.1041V43.4974C20.021 43.8826 20.0089 44.2726 20.021 44.6578V44.6747C20.021 44.9654 20.2027 45.227 20.4667 45.3385C20.7332 45.4499 21.053 45.3966 21.2613 45.1883L23.5965 42.853C23.7055 42.744 23.817 42.6326 23.926 42.5236C23.5844 42.5236 23.2404 42.5236 22.8989 42.5236C24.5631 44.0352 26.455 45.2852 28.577 46.0507C30.1879 46.632 31.9248 46.8961 33.6351 46.8137C35.074 46.7435 36.5032 46.4504 37.8574 45.9538C38.8845 45.5783 39.8801 45.1035 40.8103 44.5294C41.2633 44.2484 41.7284 43.948 42.1305 43.5967C42.1354 43.5919 42.1402 43.587 42.1451 43.5846C42.2807 43.4708 42.3582 43.2406 42.3582 43.0711C42.3582 42.8918 42.2783 42.6811 42.1451 42.5575C41.8277 42.2692 41.4208 42.291 41.1107 42.5551Z" fill="#4B50FB"/>
<path d="M21.2476 30.2734C21.2936 30.2346 21.3396 30.1983 21.3856 30.1619C21.4583 30.1038 21.1967 30.3073 21.2766 30.2467C21.2912 30.237 21.3057 30.2249 21.3202 30.2152C21.3517 30.191 21.3832 30.1668 21.4147 30.145C21.4922 30.0893 21.5697 30.0335 21.6473 29.9778C22.1342 29.6363 22.6453 29.3286 23.171 29.05C23.5707 28.8393 23.9801 28.6455 24.3967 28.4687C24.3386 28.4929 24.2804 28.5171 24.2223 28.5413C25.1016 28.1707 26.0149 27.8824 26.9475 27.6911C27.2406 27.6305 27.5362 27.582 27.8317 27.5409C27.7663 27.5506 27.7033 27.5578 27.6379 27.5675C28.7522 27.4197 29.8811 27.4149 30.9954 27.5651C30.93 27.5554 30.867 27.5481 30.8016 27.5384C31.9305 27.6935 33.0303 28.0036 34.0767 28.4444C34.0186 28.4202 33.9605 28.396 33.9023 28.3718C34.5176 28.6334 35.1135 28.9362 35.6852 29.2802C35.9905 29.4619 36.2908 29.6556 36.584 29.8567C36.739 29.9633 36.8916 30.0723 37.0442 30.1862C37.1145 30.2395 37.1871 30.2927 37.2574 30.346C37.2743 30.3606 37.2937 30.3727 37.3107 30.3872C37.3737 30.4357 37.2501 30.3388 37.2525 30.3412C37.2937 30.3751 37.3349 30.4066 37.3761 30.4381C37.737 30.7239 38.0883 31.0243 38.4298 31.3344C38.7205 31.5984 39.1687 31.6227 39.457 31.3344C40.2346 30.5568 41.0146 29.7768 41.7922 28.9992C41.9012 28.8902 42.0126 28.7787 42.1216 28.6697C41.7074 28.4977 41.2956 28.3282 40.8813 28.1562V29.1106V31.3901V34.1468V36.5402C40.8813 36.9254 40.8692 37.3154 40.8813 37.7005V37.7175L41.6081 36.9908C41.2907 36.9908 40.971 36.9908 40.6536 36.9908C39.893 36.9908 39.1348 36.9908 38.3741 36.9908C37.456 36.9908 36.5355 36.9908 35.6174 36.9908C34.8204 36.9908 34.021 36.9908 33.224 36.9908C32.8389 36.9908 32.4489 36.9787 32.0637 36.9908C32.0589 36.9908 32.0516 36.9908 32.0467 36.9908C32.2187 37.405 32.3883 37.8168 32.5603 38.2311C33.3379 37.4535 34.1155 36.6759 34.8931 35.8983C35.0021 35.7892 35.1111 35.6802 35.2201 35.5712C35.4914 35.2999 35.5084 34.813 35.2201 34.5441C33.7933 33.2118 32.2478 31.986 30.5691 30.9904C29.3264 30.254 27.994 29.6387 26.6084 29.2269C25.5934 28.9265 24.5348 28.7375 23.4762 28.6939C22.7616 28.6649 22.0445 28.7157 21.342 28.8466C21.0731 28.8974 20.8018 28.958 20.545 29.0549C20.5426 29.0573 20.5378 29.0573 20.5354 29.0597C20.3537 29.1348 20.2059 29.2172 20.1017 29.394C20.0097 29.5491 19.9709 29.7792 20.0291 29.9536C20.0848 30.1304 20.1938 30.3 20.3634 30.3872C20.5232 30.472 20.7461 30.5326 20.9229 30.4599C21.1531 30.3654 21.4026 30.3121 21.6448 30.2637C21.795 30.2346 21.9452 30.2104 22.0978 30.1886C22.0324 30.1983 21.9694 30.2055 21.904 30.2152C22.5363 30.1304 23.1782 30.1208 23.8153 30.1668C24.043 30.1837 24.2707 30.208 24.496 30.237C24.4306 30.2273 24.3676 30.2201 24.3022 30.2104C25.201 30.3315 26.0851 30.5592 26.9403 30.862C27.2261 30.9638 27.5095 31.0752 27.7905 31.1915C27.7324 31.1672 27.6743 31.143 27.6161 31.1188C28.4519 31.4725 29.261 31.894 30.0361 32.3639C30.4794 32.6328 30.913 32.9187 31.337 33.219C31.5647 33.3789 31.7875 33.5436 32.0104 33.7108C32.0661 33.752 32.1194 33.7956 32.1776 33.8368C31.991 33.6987 32.1897 33.8465 32.2308 33.8779C32.3495 33.9724 32.4682 34.0645 32.5845 34.1614C33.1368 34.6119 33.6746 35.0819 34.1954 35.5688C34.1954 35.2272 34.1954 34.8833 34.1954 34.5417C33.4178 35.3193 32.6402 36.0969 31.8626 36.8745C31.7536 36.9835 31.6446 37.0925 31.5356 37.2015C31.3273 37.4098 31.2716 37.7296 31.3854 37.9961C31.4969 38.2601 31.7585 38.4418 32.0492 38.4418H33.0036H35.2831H38.0398H40.4332C40.8208 38.4418 41.206 38.4491 41.5935 38.4418H41.6105C42.0029 38.4418 42.3372 38.1099 42.3372 37.7151C42.3372 37.3977 42.3372 37.078 42.3372 36.7606C42.3372 36 42.3372 35.2418 42.3372 34.4811C42.3372 33.563 42.3372 32.6425 42.3372 31.7244C42.3372 30.9274 42.3372 30.128 42.3372 29.331C42.3372 28.9459 42.3493 28.5559 42.3372 28.1707C42.3372 28.1659 42.3372 28.1586 42.3372 28.1537C42.3372 27.8631 42.1555 27.6014 41.8915 27.49C41.625 27.3786 41.3053 27.4319 41.0969 27.6402C40.3193 28.4178 39.5393 29.1978 38.7617 29.9754C38.6527 30.0844 38.5413 30.1959 38.4323 30.3049H39.4594C37.7952 28.7933 35.9033 27.5433 33.7812 26.7778C32.1703 26.1964 30.4334 25.9324 28.7232 26.0147C27.2842 26.085 25.855 26.3781 24.5009 26.8747C23.4738 27.2502 22.4781 27.725 21.5479 28.2991C21.0949 28.5801 20.6298 28.8805 20.2277 29.2317C20.2229 29.2366 20.218 29.2414 20.2132 29.2438C20.0775 29.3577 20 29.5878 20 29.7574C20 29.9367 20.0799 30.1474 20.2132 30.2709C20.5305 30.5592 20.9375 30.5374 21.2476 30.2734Z" fill="#4B50FB"/>
<defs>
<linearGradient id="paint0_linear_3726_1073" x1="56.5645" y1="5.5" x2="-6.63465" y2="14.0206" gradientUnits="userSpaceOnUse">
<stop stop-color="#A5A9F7"/>
<stop offset="0.310786" stop-color="#4E4EFF"/>
<stop offset="0.549372" stop-color="#385CE5"/>
<stop offset="0.981432" stop-color="#70EFC0"/>
</linearGradient>
<linearGradient id="paint1_linear_3726_1073" x1="56.5645" y1="5.5" x2="-6.63465" y2="14.0206" gradientUnits="userSpaceOnUse">
<stop stop-color="#A5A9F7"/>
<stop offset="0.310786" stop-color="#4E4EFF"/>
<stop offset="0.549372" stop-color="#385CE5"/>
<stop offset="0.981432" stop-color="#70EFC0"/>
</linearGradient>
</defs>
</svg>
