<svg width="65" height="65" viewBox="0 0 65 65" fill="none" xmlns="http://www.w3.org/2000/svg">
<g clip-path="url(#clip0_3721_1123)">
<path d="M32.5008 1.29974C15.2695 1.29974 1.30078 15.2685 1.30078 32.4998C1.30078 49.731 15.2695 63.6998 32.5008 63.6998C49.7321 63.6998 63.7008 49.731 63.7008 32.4998L32.5008 1.29974Z" stroke="url(#paint0_linear_3721_1123)" stroke-width="1.5"/>
<path d="M32.5 32V2.5V2L61.5 30L63 32.5L32.5 33V32Z" fill="#CADAF7"/>
<path d="M32.5 1.53192V32.7319H63.7L32.5 1.53192Z" stroke="url(#paint1_linear_3721_1123)" stroke-width="1.5" stroke-linecap="round" stroke-linejoin="round"/>
<path d="M18.3242 40.117C17.1109 40.117 16.144 40.4258 15.4398 41.0108C14.7357 41.585 14.3836 42.369 14.3836 43.3873C14.3836 43.8748 14.4648 44.3 14.6273 44.6467C14.8007 44.9933 15.0268 45.2912 15.2977 45.5404C15.5793 45.7896 15.8948 45.9968 16.2523 46.1701C16.6207 46.3326 16.9998 46.4762 17.3898 46.617C17.7798 46.747 18.1224 46.8825 18.4258 47.0233C18.7291 47.1533 18.9918 47.3076 19.1977 47.4701C19.4143 47.6218 19.5768 47.8033 19.6852 47.9983C19.8043 48.1933 19.868 48.4181 19.868 48.6889C19.868 49.1439 19.696 49.496 19.3602 49.7451C19.0243 49.9943 18.4921 50.1108 17.7555 50.1108C17.0513 50.1108 16.446 50.0295 15.9477 49.867C15.4493 49.7045 15.062 49.542 14.7695 49.3795L14.1602 51.0654C14.2902 51.1412 14.4716 51.232 14.6883 51.3295C14.9049 51.4162 15.1473 51.4866 15.4398 51.5733C15.7432 51.66 16.0966 51.7425 16.4758 51.7967C16.8658 51.8617 17.2896 51.8983 17.7555 51.8983C19.1421 51.8983 20.1889 51.6179 20.9039 51.0654C21.6297 50.5021 22.0008 49.7072 22.0008 48.6889C22.0008 48.1581 21.9087 47.7166 21.757 47.3483C21.6054 46.9691 21.3995 46.6441 21.107 46.3733C20.8254 46.0916 20.4733 45.837 20.0508 45.642C19.6391 45.4362 19.1597 45.2479 18.6289 45.0529C18.3256 44.9446 18.0358 44.8268 17.7758 44.7076C17.5266 44.5885 17.3208 44.4625 17.1258 44.3217C16.9416 44.1808 16.7872 44.0279 16.6789 43.8545C16.5814 43.6704 16.5367 43.4537 16.5367 43.2045C16.5367 42.7929 16.6803 42.457 16.9836 42.2295C17.2978 42.002 17.7311 41.9045 18.2836 41.9045C18.7494 41.9045 19.2112 41.9585 19.6445 42.067C20.0887 42.1754 20.4949 42.3283 20.8633 42.5342L21.493 40.8686C21.1788 40.6844 20.7455 40.5125 20.193 40.3608C19.6513 40.1983 19.0284 40.117 18.3242 40.117ZM38.4133 40.117C37.1999 40.117 36.2331 40.4258 35.5289 41.0108C34.8247 41.585 34.4727 42.369 34.4727 43.3873C34.4727 43.8748 34.5539 44.3 34.7164 44.6467C34.8897 44.9933 35.1159 45.2912 35.3867 45.5404C35.6684 45.7896 35.9839 45.9968 36.3414 46.1701C36.7097 46.3326 37.0889 46.4762 37.4789 46.617C37.8689 46.747 38.2115 46.8825 38.5148 47.0233C38.8182 47.1533 39.0809 47.3076 39.2867 47.4701C39.5034 47.6218 39.6659 47.8033 39.7742 47.9983C39.8934 48.1933 39.957 48.4181 39.957 48.6889C39.957 49.1439 39.785 49.496 39.4492 49.7451C39.1134 49.9943 38.5812 50.1108 37.8445 50.1108C37.1404 50.1108 36.535 50.0295 36.0367 49.867C35.5384 49.7045 35.1511 49.542 34.8586 49.3795L34.2492 51.0654C34.3792 51.1412 34.5607 51.232 34.7773 51.3295C34.994 51.4162 35.2364 51.4866 35.5289 51.5733C35.8322 51.66 36.1857 51.7425 36.5648 51.7967C36.9548 51.8617 37.3787 51.8983 37.8445 51.8983C39.2312 51.8983 40.278 51.6179 40.993 51.0654C41.7188 50.5021 42.0898 49.7072 42.0898 48.6889C42.0898 48.1581 41.9978 47.7166 41.8461 47.3483C41.6944 46.9691 41.4886 46.6441 41.1961 46.3733C40.9144 46.0916 40.5623 45.837 40.1398 45.642C39.7282 45.4362 39.2488 45.2479 38.718 45.0529C38.4146 44.9446 38.1248 44.8268 37.8648 44.7076C37.6157 44.5885 37.4098 44.4625 37.2148 44.3217C37.0307 44.1808 36.8763 44.0279 36.768 43.8545C36.6705 43.6704 36.6258 43.4537 36.6258 43.2045C36.6258 42.7929 36.7693 42.457 37.0727 42.2295C37.3868 42.002 37.8202 41.9045 38.3727 41.9045C38.8385 41.9045 39.3003 41.9585 39.7336 42.067C40.1778 42.1754 40.584 42.3283 40.9523 42.5342L41.582 40.8686C41.2679 40.6844 40.8345 40.5125 40.282 40.3608C39.7404 40.1983 39.1174 40.117 38.4133 40.117ZM47.168 40.117C45.9546 40.117 44.9878 40.4258 44.2836 41.0108C43.5794 41.585 43.2273 42.369 43.2273 43.3873C43.2273 43.8748 43.3086 44.3 43.4711 44.6467C43.6444 44.9933 43.8706 45.2912 44.1414 45.5404C44.4231 45.7896 44.7386 45.9968 45.0961 46.1701C45.4644 46.3326 45.8436 46.4762 46.2336 46.617C46.6236 46.747 46.9865 46.8825 47.2898 47.0233C47.5932 47.1533 47.8356 47.3076 48.0414 47.4701C48.2581 47.6218 48.4206 47.8033 48.5289 47.9983C48.6481 48.1933 48.7117 48.4181 48.7117 48.6889C48.7117 49.1439 48.5397 49.496 48.2039 49.7451C47.8681 49.9943 47.3359 50.1108 46.5992 50.1108C45.8951 50.1108 45.2897 50.0295 44.7914 49.867C44.2931 49.7045 43.9058 49.542 43.6133 49.3795L43.0039 51.0654C43.1339 51.1412 43.3154 51.232 43.532 51.3295C43.7487 51.4162 43.9911 51.4866 44.2836 51.5733C44.5869 51.66 44.9404 51.7425 45.3195 51.7967C45.7095 51.8617 46.1334 51.8983 46.5992 51.8983C47.9859 51.8983 49.0326 51.6179 49.7477 51.0654C50.4735 50.5021 50.8445 49.7072 50.8445 48.6889C50.8445 48.1581 50.7728 47.7166 50.6211 47.3483C50.4694 46.9691 50.2433 46.6441 49.9508 46.3733C49.6691 46.0916 49.317 45.837 48.8945 45.642C48.4829 45.4362 48.0035 45.2479 47.4727 45.0529C47.1693 44.9446 46.8998 44.8268 46.6398 44.7076C46.3907 44.5885 46.1645 44.4625 45.9695 44.3217C45.7854 44.1808 45.631 44.0279 45.5227 43.8545C45.4252 43.6704 45.3805 43.4537 45.3805 43.2045C45.3805 42.7929 45.524 42.457 45.8273 42.2295C46.1415 42.002 46.5748 41.9045 47.1273 41.9045C47.5932 41.9045 48.0549 41.9585 48.4883 42.067C48.9324 42.1754 49.3387 42.3283 49.707 42.5342L50.3367 40.8686C50.0225 40.6844 49.5892 40.5125 49.0367 40.3608C48.495 40.1983 47.8721 40.117 47.168 40.117ZM27.018 40.3811C26.6388 41.1827 26.2583 41.9952 25.9008 42.8186C25.5433 43.6419 25.1925 44.5086 24.8242 45.4186C24.4667 46.3286 24.0862 47.305 23.707 48.3233C23.3279 49.3416 22.9311 50.452 22.5086 51.6545H24.6414L25.0883 50.3545C25.2508 49.9104 25.4241 49.4486 25.5758 48.9936H30.3086C30.4603 49.4486 30.6133 49.9008 30.7758 50.3342C30.9383 50.7675 31.1116 51.2104 31.2633 51.6545H33.457C33.0345 50.452 32.6283 49.3416 32.2383 48.3233C31.8591 47.305 31.4894 46.3286 31.1211 45.4186C30.7636 44.5086 30.402 43.6419 30.0445 42.8186C29.687 41.9952 29.3268 41.1827 28.9477 40.3811H27.018ZM27.932 42.5545C28.1704 43.107 28.4602 43.8125 28.7852 44.6467C29.1102 45.4808 29.4541 46.3841 29.8008 47.3483H26.0836C26.4303 46.3841 26.7647 45.4904 27.0789 44.667C27.4039 43.8437 27.6829 43.1287 27.932 42.5545Z" fill="#4B50FB"/>
</g>
<defs>
<linearGradient id="paint0_linear_3721_1123" x1="59.6058" y1="5.97975" x2="-6.68911" y2="14.9978" gradientUnits="userSpaceOnUse">
<stop stop-color="#A5A9F7"/>
<stop offset="0.310786" stop-color="#4E4EFF"/>
<stop offset="0.549372" stop-color="#385CE5"/>
<stop offset="0.981432" stop-color="#70EFC0"/>
</linearGradient>
<linearGradient id="paint1_linear_3721_1123" x1="61.6525" y1="3.87192" x2="28.5051" y2="8.38095" gradientUnits="userSpaceOnUse">
<stop stop-color="#A5A9F7"/>
<stop offset="0.310786" stop-color="#4E4EFF"/>
<stop offset="0.549372" stop-color="#385CE5"/>
<stop offset="0.981432" stop-color="#70EFC0"/>
</linearGradient>
<clipPath id="clip0_3721_1123">
<rect width="65" height="65" fill="white"/>
</clipPath>
</defs>
</svg>
