<svg width="61" height="62" viewBox="0 0 61 62" fill="none" xmlns="http://www.w3.org/2000/svg">
<mask id="path-1-outside-1_3726_1108" maskUnits="userSpaceOnUse" x="0" y="0" width="61" height="62" fill="black">
<rect fill="white" width="61" height="62"/>
<path fill-rule="evenodd" clip-rule="evenodd" d="M2.37398 7.02904C2.37398 4.46237 4.46247 2.37393 7.02918 2.37393H54.4378C57.0044 2.37393 59.093 4.46233 59.093 7.02904L59.093 13.6283L2.374 13.6283L2.37398 7.02904ZM1.0001 14.3271L1 54.9709C1 58.295 3.70399 61 7.02918 61H54.4377C57.7618 61 60.467 58.295 60.467 54.9709L60.4669 7.02911C60.4669 3.70388 57.762 1 54.4378 1H7.0291C3.70388 1 1.00012 3.70388 1.00012 7.02911L1.0001 14.3037C1.00003 14.3076 1 14.3114 1 14.3153C1 14.3192 1.00003 14.3232 1.0001 14.3271ZM2.374 15.0023H59.093L59.0929 54.9708C59.0929 57.5375 57.0045 59.6259 54.4378 59.6259H7.0291C4.46239 59.6259 2.3741 57.5375 2.3741 54.9708L2.374 15.0023Z"/>
</mask>
<path fill-rule="evenodd" clip-rule="evenodd" d="M2.37398 7.02904C2.37398 4.46237 4.46247 2.37393 7.02918 2.37393H54.4378C57.0044 2.37393 59.093 4.46233 59.093 7.02904L59.093 13.6283L2.374 13.6283L2.37398 7.02904ZM1.0001 14.3271L1 54.9709C1 58.295 3.70399 61 7.02918 61H54.4377C57.7618 61 60.467 58.295 60.467 54.9709L60.4669 7.02911C60.4669 3.70388 57.762 1 54.4378 1H7.0291C3.70388 1 1.00012 3.70388 1.00012 7.02911L1.0001 14.3037C1.00003 14.3076 1 14.3114 1 14.3153C1 14.3192 1.00003 14.3232 1.0001 14.3271ZM2.374 15.0023H59.093L59.0929 54.9708C59.0929 57.5375 57.0045 59.6259 54.4378 59.6259H7.0291C4.46239 59.6259 2.3741 57.5375 2.3741 54.9708L2.374 15.0023Z" fill="url(#paint0_linear_3726_1108)"/>
<path d="M2.37398 7.02904H2.27398V7.02904L2.37398 7.02904ZM59.093 7.02904H59.193H59.093ZM59.093 13.6283V13.7283H59.193V13.6283H59.093ZM2.374 13.6283H2.274L2.274 13.7283H2.374L2.374 13.6283ZM1 54.9709H0.9H1ZM1.0001 14.3271H1.10011L1.10008 14.3254L1.0001 14.3271ZM60.467 54.9709H60.567H60.467ZM60.4669 7.02911H60.3669V7.02911L60.4669 7.02911ZM1.00012 7.02911L1.10012 7.02911V7.02911H1.00012ZM1.0001 14.3037L1.1001 14.3054L1.1001 14.3037H1.0001ZM1 14.3153L0.9 14.3153V14.3153H1ZM59.093 15.0023H59.193V14.9023H59.093V15.0023ZM2.374 15.0023V14.9023H2.274L2.274 15.0023H2.374ZM59.0929 54.9708H58.9929H59.0929ZM2.3741 54.9708H2.4741H2.3741ZM7.02918 2.27393C4.40725 2.27393 2.27398 4.40714 2.27398 7.02904H2.47398C2.47398 4.5176 4.5177 2.47393 7.02918 2.47393V2.27393ZM54.4378 2.27393H7.02918V2.47393H54.4378V2.27393ZM59.193 7.02904C59.193 4.4071 57.0597 2.27393 54.4378 2.27393V2.47393C56.9492 2.47393 58.993 4.51757 58.993 7.02904H59.193ZM59.193 13.6283L59.193 7.02904H58.993L58.993 13.6283H59.193ZM2.374 13.7283L59.093 13.7283V13.5283L2.374 13.5283L2.374 13.7283ZM2.27398 7.02904L2.274 13.6283H2.474L2.47398 7.02904L2.27398 7.02904ZM1.1 54.9709L1.1001 14.3271H0.900099L0.9 54.9709H1.1ZM7.02918 60.9C3.75923 60.9 1.1 58.2397 1.1 54.9709H0.9C0.9 58.3502 3.64875 61.1 7.02918 61.1V60.9ZM54.4377 60.9H7.02918V61.1H54.4377V60.9ZM60.367 54.9709C60.367 58.2397 57.7066 60.9 54.4377 60.9V61.1C57.817 61.1 60.567 58.3502 60.567 54.9709H60.367ZM60.3669 7.02911L60.367 54.9709H60.567L60.5669 7.02911L60.3669 7.02911ZM54.4378 1.1C57.7067 1.1 60.3669 3.75912 60.3669 7.02911H60.5669C60.5669 3.64864 57.8172 0.9 54.4378 0.9V1.1ZM7.0291 1.1H54.4378V0.9H7.0291V1.1ZM1.10012 7.02911C1.10012 3.7591 3.75911 1.1 7.0291 1.1V0.9C3.64864 0.9 0.900117 3.64865 0.900117 7.02911H1.10012ZM1.1001 14.3037L1.10012 7.02911L0.900117 7.02911L0.900099 14.3037H1.1001ZM1.1 14.3153C1.1 14.312 1.10003 14.3087 1.10009 14.3054L0.900113 14.302C0.900039 14.3064 0.900001 14.3109 0.9 14.3153L1.1 14.3153ZM1.10008 14.3254C1.10003 14.322 1.1 14.3187 1.1 14.3153H0.9C0.9 14.3198 0.900038 14.3243 0.900113 14.3288L1.10008 14.3254ZM59.093 14.9023H2.374V15.1023H59.093V14.9023ZM59.1929 54.9708L59.193 15.0023H58.993L58.9929 54.9708H59.1929ZM54.4378 59.7259C57.0597 59.7259 59.1929 57.5928 59.1929 54.9708H58.9929C58.9929 57.4823 56.9492 59.5259 54.4378 59.5259V59.7259ZM7.0291 59.7259H54.4378V59.5259H7.0291V59.7259ZM2.2741 54.9708C2.2741 57.5928 4.40716 59.7259 7.0291 59.7259V59.5259C4.51762 59.5259 2.4741 57.4823 2.4741 54.9708H2.2741ZM2.274 15.0023L2.2741 54.9708H2.4741L2.474 15.0023H2.274Z" fill="url(#paint1_linear_3726_1108)" mask="url(#path-1-outside-1_3726_1108)"/>
<path d="M8.86777 9.04711V9.14711H8.96777H13.4833H13.5833V9.04711V6.95391V6.85391H13.4833H8.96777H8.86777V6.95391V9.04711ZM14.1703 10.3211H8.2808C7.95668 10.3211 7.69375 10.0592 7.69375 9.73408L7.69379 6.26692C7.69379 5.94285 7.95673 5.67991 8.28076 5.67991H14.1703C14.4944 5.67991 14.7573 5.94285 14.7573 6.26692V9.73408C14.7573 10.0592 14.4945 10.3211 14.1703 10.3211Z" fill="#CADAF7" stroke="#CADAF7" stroke-width="0.2"/>
<rect x="8.96875" y="6" width="5" height="4" fill="#CADAF7"/>
<path d="M19.1959 9.04711V9.14711H19.2959H23.8104H23.9104V9.04711V6.95391V6.85391H23.8104H19.2959H19.1959V6.95391V9.04711ZM24.4974 10.3211H18.6089C18.2837 10.3211 18.0219 10.0593 18.0219 9.73408L18.0219 6.26692C18.0219 5.94273 18.2837 5.67991 18.6089 5.67991H24.4974C24.8213 5.67991 25.0842 5.94284 25.0842 6.26692L25.0844 9.73408C25.0844 10.0592 24.8214 10.3211 24.4974 10.3211Z" fill="#CADAF7" stroke="#CADAF7" stroke-width="0.2"/>
<rect x="18.9688" y="6" width="5" height="4" fill="#CADAF7"/>
<rect x="28.9688" y="6" width="6" height="4" fill="#CADAF7"/>
<path d="M29.524 9.04711V9.14711H29.624H34.1385H34.2385V9.04711V6.95391V6.85391H34.1385H29.624H29.524V6.95391V9.04711ZM34.8255 10.3211H28.9371C28.613 10.3211 28.35 10.0592 28.35 9.73408L28.35 6.26692C28.35 5.94285 28.613 5.67991 28.937 5.67991H34.8255C35.1495 5.67991 35.4124 5.94284 35.4124 6.26692L35.4125 9.73408C35.4125 10.0592 35.1496 10.3211 34.8255 10.3211Z" fill="#CADAF7" stroke="#CADAF7" stroke-width="0.2"/>
<path d="M19.054 40.2827C19.6982 40.8651 20.0624 41.7011 20.0624 42.5747V46.0504C20.0624 47.6755 21.3788 49 22.994 49H39.006C40.6212 49 41.9376 47.6755 41.9376 46.0504V42.5747C41.9376 41.7011 42.3018 40.8651 42.946 40.2827L44.6919 38.6951C44.888 38.5167 45 38.263 45 38C45 37.737 44.888 37.4833 44.6919 37.3049L42.946 35.7173C42.3018 35.1349 41.9376 34.2989 41.9376 33.4253V29.9496C41.9376 28.3245 40.6212 27 39.006 27H22.994C21.3788 27 20.0624 28.3245 20.0624 29.9496V33.4253C20.0624 34.2989 19.6982 35.1255 19.054 35.7173L17.3081 37.3049C17.112 37.4833 17 37.737 17 38C17 38.263 17.112 38.5167 17.3081 38.6951L19.054 40.2827ZM20.3051 37.1076C21.3414 36.1682 21.9296 34.8249 21.9296 33.4253V29.9496C21.9296 29.3578 22.4058 28.8787 22.994 28.8787H39.006C39.5942 28.8787 40.0704 29.3578 40.0704 29.9496V33.4253C40.0704 34.8249 40.6586 36.1682 41.6949 37.1076L42.6752 38L41.6949 38.8924C40.6586 39.8318 40.0704 41.1751 40.0704 42.5747V46.0504C40.0704 46.6422 39.5942 47.1213 39.006 47.1213H22.994C22.4058 47.1213 21.9296 46.6422 21.9296 46.0504V42.5747C21.9296 41.1751 21.3414 39.8318 20.3051 38.8924L19.3248 38L20.3051 37.1076ZM27.2514 44.9795H31.957C34.0203 44.9795 35.6916 43.298 35.6916 41.222V40.8181C35.6916 39.6909 35.1874 38.6857 34.4031 38C35.1874 37.3143 35.6916 36.3091 35.6916 35.1819V34.778C35.6916 32.702 34.0203 31.0205 31.957 31.0205H27.2514C26.7379 31.0205 26.3178 31.4432 26.3178 31.9599V44.0401C26.3178 44.5568 26.7379 44.9795 27.2514 44.9795ZM33.8243 40.8181V41.222C33.8243 42.2553 32.984 43.1008 31.957 43.1008H28.1851V38.9394H31.957C32.984 38.9394 33.8243 39.7848 33.8243 40.8181ZM28.1851 32.8992H31.957C32.984 32.8992 33.8243 33.7447 33.8243 34.778V35.1819C33.8243 36.2152 32.984 37.0606 31.957 37.0606H28.1851V32.8992Z" fill="#9A9DFD" stroke="white" stroke-width="0.6"/>
<defs>
<linearGradient id="paint0_linear_3726_1108" x1="56.5645" y1="5.5" x2="-6.63465" y2="14.0206" gradientUnits="userSpaceOnUse">
<stop stop-color="#A5A9F7"/>
<stop offset="0.310786" stop-color="#4E4EFF"/>
<stop offset="0.549372" stop-color="#385CE5"/>
<stop offset="0.981432" stop-color="#70EFC0"/>
</linearGradient>
<linearGradient id="paint1_linear_3726_1108" x1="56.5645" y1="5.5" x2="-6.63465" y2="14.0206" gradientUnits="userSpaceOnUse">
<stop stop-color="#A5A9F7"/>
<stop offset="0.310786" stop-color="#4E4EFF"/>
<stop offset="0.549372" stop-color="#385CE5"/>
<stop offset="0.981432" stop-color="#70EFC0"/>
</linearGradient>
</defs>
</svg>
