<svg width="70" height="70" viewBox="0 0 70 70" fill="none" xmlns="http://www.w3.org/2000/svg">
<path d="M64.1667 31.7917V11.9583C64.1667 7.58333 62.3 5.83333 57.6625 5.83333H45.8792C41.2417 5.83333 39.375 7.58333 39.375 11.9583V31.7917C39.375 36.1667 41.2417 37.9167 45.8792 37.9167H57.6625C62.3 37.9167 64.1667 36.1667 64.1667 31.7917Z" stroke="url(#paint0_linear_3721_1184)" stroke-width="1.5" stroke-linecap="round" stroke-linejoin="round"/>
<path d="M64.1667 58.0417V52.7917C64.1667 48.4167 62.3 46.6667 57.6625 46.6667H45.8792C41.2417 46.6667 39.375 48.4167 39.375 52.7917V58.0417C39.375 62.4167 41.2417 64.1667 45.8792 64.1667H57.6625C62.3 64.1667 64.1667 62.4167 64.1667 58.0417Z" fill="#CADAF7" stroke="url(#paint1_linear_3721_1184)" stroke-width="1.5" stroke-linecap="round" stroke-linejoin="round"/>
<path d="M30.6198 38.2083V58.0417C30.6198 62.4167 28.7531 64.1667 24.1156 64.1667H12.3323C7.69479 64.1667 5.82812 62.4167 5.82812 58.0417V38.2083C5.82812 33.8333 7.69479 32.0833 12.3323 32.0833H24.1156C28.7531 32.0833 30.6198 33.8333 30.6198 38.2083Z" stroke="url(#paint2_linear_3721_1184)" stroke-width="1.5" stroke-linecap="round" stroke-linejoin="round"/>
<rect x="9" y="39" width="17" height="1.5" rx="0.75" fill="#4B50FB"/>
<rect x="9" y="43" width="11" height="1.5" rx="0.75" fill="#4B50FB"/>
<rect x="9" y="47" width="11" height="1.5" rx="0.75" fill="#4B50FB"/>
<path d="M30.6198 11.9583V17.2083C30.6198 21.5833 28.7531 23.3333 24.1156 23.3333H12.3323C7.69479 23.3333 5.82812 21.5833 5.82812 17.2083V11.9583C5.82812 7.58333 7.69479 5.83333 12.3323 5.83333H24.1156C28.7531 5.83333 30.6198 7.58333 30.6198 11.9583Z" fill="#CADAF7" stroke="url(#paint3_linear_3721_1184)" stroke-width="1.5" stroke-linecap="round" stroke-linejoin="round"/>
<rect x="43" y="12" width="17" height="1.5" rx="0.75" fill="#4B50FB"/>
<rect x="43" y="16" width="11" height="1.5" rx="0.75" fill="#4B50FB"/>
<rect x="43" y="20" width="11" height="1.5" rx="0.75" fill="#4B50FB"/>
<defs>
<linearGradient id="paint0_linear_3721_1184" x1="62.5397" y1="8.23958" x2="36.0064" y2="11.0286" gradientUnits="userSpaceOnUse">
<stop stop-color="#A5A9F7"/>
<stop offset="0.310786" stop-color="#4E4EFF"/>
<stop offset="0.549372" stop-color="#385CE5"/>
<stop offset="0.981432" stop-color="#70EFC0"/>
</linearGradient>
<linearGradient id="paint1_linear_3721_1184" x1="62.5397" y1="47.9792" x2="36.6738" y2="52.9637" gradientUnits="userSpaceOnUse">
<stop stop-color="#A5A9F7"/>
<stop offset="0.310786" stop-color="#4E4EFF"/>
<stop offset="0.549372" stop-color="#385CE5"/>
<stop offset="0.981432" stop-color="#70EFC0"/>
</linearGradient>
<linearGradient id="paint2_linear_3721_1184" x1="28.9928" y1="34.4896" x2="2.45951" y2="37.2786" gradientUnits="userSpaceOnUse">
<stop stop-color="#A5A9F7"/>
<stop offset="0.310786" stop-color="#4E4EFF"/>
<stop offset="0.549372" stop-color="#385CE5"/>
<stop offset="0.981432" stop-color="#70EFC0"/>
</linearGradient>
<linearGradient id="paint3_linear_3721_1184" x1="28.9928" y1="7.14583" x2="3.12691" y2="12.1304" gradientUnits="userSpaceOnUse">
<stop stop-color="#A5A9F7"/>
<stop offset="0.310786" stop-color="#4E4EFF"/>
<stop offset="0.549372" stop-color="#385CE5"/>
<stop offset="0.981432" stop-color="#70EFC0"/>
</linearGradient>
</defs>
</svg>
