<svg width="23" height="29" viewBox="0 0 23 29" fill="none" xmlns="http://www.w3.org/2000/svg">
<path d="M22 7.75V21.25C22 26.65 20.6875 28 15.4375 28H7.5625C2.3125 28 1 26.65 1 21.25V7.75C1 2.35 2.3125 1 7.5625 1H15.4375C20.6875 1 22 2.35 22 7.75Z" stroke="#0C111D" stroke-width="2" stroke-linecap="round" stroke-linejoin="round"/>
<path d="M14.125 5.7251H8.875" stroke="#0C111D" stroke-width="2" stroke-linecap="round" stroke-linejoin="round"/>
<path d="M11.5031 24.0849C12.6267 24.0849 13.5375 23.1481 13.5375 21.9924C13.5375 20.8367 12.6267 19.8999 11.5031 19.8999C10.3796 19.8999 9.46875 20.8367 9.46875 21.9924C9.46875 23.1481 10.3796 24.0849 11.5031 24.0849Z" stroke="#0C111D" stroke-width="2" stroke-linecap="round" stroke-linejoin="round"/>
</svg>
