<svg width="61" height="62" viewBox="0 0 61 62" fill="none" xmlns="http://www.w3.org/2000/svg">
<mask id="path-1-outside-1_3696_1094" maskUnits="userSpaceOnUse" x="0.03125" y="0" width="61" height="62" fill="black">
<rect fill="white" x="0.03125" width="61" height="62"/>
<path fill-rule="evenodd" clip-rule="evenodd" d="M2.40523 7.02904C2.40523 4.46237 4.49372 2.37393 7.06043 2.37393H54.469C57.0357 2.37393 59.1242 4.46233 59.1242 7.02904L59.1242 13.6283L2.40525 13.6283L2.40523 7.02904ZM1.03135 14.3271L1.03125 54.9709C1.03125 58.295 3.73524 61 7.06043 61H54.469C57.793 61 60.4983 58.295 60.4983 54.9709L60.4981 7.02911C60.4981 3.70388 57.7932 1 54.469 1H7.06035C3.73513 1 1.03137 3.70388 1.03137 7.02911L1.03135 14.3037C1.03128 14.3076 1.03125 14.3114 1.03125 14.3153C1.03125 14.3192 1.03128 14.3232 1.03135 14.3271ZM2.40525 15.0023H59.1242L59.1241 54.9708C59.1241 57.5375 57.0357 59.6259 54.469 59.6259H7.06035C4.49364 59.6259 2.40535 57.5375 2.40535 54.9708L2.40525 15.0023Z"/>
</mask>
<path fill-rule="evenodd" clip-rule="evenodd" d="M2.40523 7.02904C2.40523 4.46237 4.49372 2.37393 7.06043 2.37393H54.469C57.0357 2.37393 59.1242 4.46233 59.1242 7.02904L59.1242 13.6283L2.40525 13.6283L2.40523 7.02904ZM1.03135 14.3271L1.03125 54.9709C1.03125 58.295 3.73524 61 7.06043 61H54.469C57.793 61 60.4983 58.295 60.4983 54.9709L60.4981 7.02911C60.4981 3.70388 57.7932 1 54.469 1H7.06035C3.73513 1 1.03137 3.70388 1.03137 7.02911L1.03135 14.3037C1.03128 14.3076 1.03125 14.3114 1.03125 14.3153C1.03125 14.3192 1.03128 14.3232 1.03135 14.3271ZM2.40525 15.0023H59.1242L59.1241 54.9708C59.1241 57.5375 57.0357 59.6259 54.469 59.6259H7.06035C4.49364 59.6259 2.40535 57.5375 2.40535 54.9708L2.40525 15.0023Z" fill="url(#paint0_linear_3696_1094)"/>
<path d="M2.40523 7.02904H2.30523V7.02904L2.40523 7.02904ZM59.1242 7.02904H59.2242H59.1242ZM59.1242 13.6283V13.7283H59.2242V13.6283H59.1242ZM2.40525 13.6283H2.30525L2.30525 13.7283H2.40525L2.40525 13.6283ZM1.03125 54.9709H0.93125H1.03125ZM1.03135 14.3271H1.13136L1.13133 14.3254L1.03135 14.3271ZM60.4983 54.9709H60.5983H60.4983ZM60.4981 7.02911H60.3981V7.02911L60.4981 7.02911ZM1.03137 7.02911L1.13137 7.02911V7.02911H1.03137ZM1.03135 14.3037L1.13135 14.3054L1.13135 14.3037H1.03135ZM1.03125 14.3153L0.93125 14.3153V14.3153H1.03125ZM59.1242 15.0023H59.2242V14.9023H59.1242V15.0023ZM2.40525 15.0023V14.9023H2.30525L2.30525 15.0023H2.40525ZM59.1241 54.9708H59.0241H59.1241ZM2.40535 54.9708H2.50535H2.40535ZM7.06043 2.27393C4.4385 2.27393 2.30523 4.40714 2.30523 7.02904H2.50523C2.50523 4.5176 4.54895 2.47393 7.06043 2.47393V2.27393ZM54.469 2.27393H7.06043V2.47393H54.469V2.27393ZM59.2242 7.02904C59.2242 4.4071 57.0909 2.27393 54.469 2.27393V2.47393C56.9805 2.47393 59.0242 4.51757 59.0242 7.02904H59.2242ZM59.2242 13.6283L59.2242 7.02904H59.0242L59.0242 13.6283H59.2242ZM2.40525 13.7283L59.1242 13.7283V13.5283L2.40525 13.5283L2.40525 13.7283ZM2.30523 7.02904L2.30525 13.6283H2.50525L2.50523 7.02904L2.30523 7.02904ZM1.13125 54.9709L1.13135 14.3271H0.931349L0.93125 54.9709H1.13125ZM7.06043 60.9C3.79048 60.9 1.13125 58.2397 1.13125 54.9709H0.93125C0.93125 58.3502 3.68 61.1 7.06043 61.1V60.9ZM54.469 60.9H7.06043V61.1H54.469V60.9ZM60.3983 54.9709C60.3983 58.2397 57.7378 60.9 54.469 60.9V61.1C57.8483 61.1 60.5983 58.3502 60.5983 54.9709H60.3983ZM60.3981 7.02911L60.3983 54.9709H60.5983L60.5981 7.02911L60.3981 7.02911ZM54.469 1.1C57.738 1.1 60.3981 3.75912 60.3981 7.02911H60.5981C60.5981 3.64864 57.8484 0.9 54.469 0.9V1.1ZM7.06035 1.1H54.469V0.9H7.06035V1.1ZM1.13137 7.02911C1.13137 3.7591 3.79036 1.1 7.06035 1.1V0.9C3.67989 0.9 0.931367 3.64865 0.931367 7.02911H1.13137ZM1.13135 14.3037L1.13137 7.02911L0.931367 7.02911L0.931349 14.3037H1.13135ZM1.13125 14.3153C1.13125 14.312 1.13128 14.3087 1.13134 14.3054L0.931363 14.302C0.931289 14.3064 0.931251 14.3109 0.93125 14.3153L1.13125 14.3153ZM1.13133 14.3254C1.13128 14.322 1.13125 14.3187 1.13125 14.3153H0.93125C0.93125 14.3198 0.931288 14.3243 0.931363 14.3288L1.13133 14.3254ZM59.1242 14.9023H2.40525V15.1023H59.1242V14.9023ZM59.2241 54.9708L59.2242 15.0023H59.0242L59.0241 54.9708H59.2241ZM54.469 59.7259C57.0909 59.7259 59.2241 57.5928 59.2241 54.9708H59.0241C59.0241 57.4823 56.9805 59.5259 54.469 59.5259V59.7259ZM7.06035 59.7259H54.469V59.5259H7.06035V59.7259ZM2.30535 54.9708C2.30535 57.5928 4.43841 59.7259 7.06035 59.7259V59.5259C4.54887 59.5259 2.50535 57.4823 2.50535 54.9708H2.30535ZM2.30525 15.0023L2.30535 54.9708H2.50535L2.50525 15.0023H2.30525Z" fill="url(#paint1_linear_3696_1094)" mask="url(#path-1-outside-1_3696_1094)"/>
<path d="M8.89902 9.04709V9.14709H8.99902H13.5146H13.6146V9.04709V6.95389V6.85389H13.5146H8.99902H8.89902V6.95389V9.04709ZM14.2016 10.3211H8.31205C7.98793 10.3211 7.725 10.0592 7.725 9.73407L7.72504 6.26691C7.72504 5.94283 7.98798 5.6799 8.31201 5.6799H14.2016C14.5256 5.6799 14.7886 5.94284 14.7886 6.26691V9.73407C14.7886 10.0592 14.5257 10.3211 14.2016 10.3211Z" fill="#CADAF7" stroke="#CADAF7" stroke-width="0.2"/>
<rect x="9" y="6" width="5" height="4" fill="#CADAF7"/>
<path d="M19.2271 9.04709V9.14709H19.3271H23.8416H23.9416V9.04709V6.95389V6.85389H23.8416H19.3271H19.2271V6.95389V9.04709ZM24.5286 10.3211H18.6402C18.315 10.3211 18.0531 10.0593 18.0531 9.73407L18.0532 6.26691C18.0532 5.94271 18.315 5.6799 18.6401 5.6799H24.5286C24.8525 5.6799 25.1155 5.94283 25.1155 6.26691L25.1156 9.73407C25.1156 10.0592 24.8526 10.3211 24.5286 10.3211Z" fill="#CADAF7" stroke="#CADAF7" stroke-width="0.2"/>
<rect x="19" y="6" width="5" height="4" fill="#CADAF7"/>
<rect x="29" y="6" width="6" height="4" fill="#CADAF7"/>
<path d="M29.5553 9.04709V9.14709H29.6553H34.1698H34.2698V9.04709V6.95389V6.85389H34.1698H29.6553H29.5553V6.95389V9.04709ZM34.8567 10.3211H28.9683C28.6442 10.3211 28.3813 10.0592 28.3813 9.73407L28.3813 6.26691C28.3813 5.94283 28.6442 5.6799 28.9683 5.6799H34.8567C35.1807 5.6799 35.4436 5.94282 35.4436 6.26691L35.4437 9.73407C35.4437 10.0592 35.1808 10.3211 34.8567 10.3211Z" fill="#CADAF7" stroke="#CADAF7" stroke-width="0.2"/>
<path fill-rule="evenodd" clip-rule="evenodd" d="M30.7711 28.3597C30.2678 28.3597 29.8594 27.9513 29.8594 27.448L29.8595 22.1571C29.8595 21.6538 30.2677 21.2456 30.771 21.2456C31.2743 21.2455 31.6826 21.6539 31.6826 22.1572L31.6828 27.448C31.6828 27.9513 31.2743 28.3597 30.7711 28.3597Z" fill="#4B50FB"/>
<path fill-rule="evenodd" clip-rule="evenodd" d="M24.3871 31.0059C24.1544 31.0059 23.9201 30.9173 23.7429 30.74L20.0014 26.9969C19.6454 26.6408 19.6453 26.0648 20.0014 25.7087C20.356 25.3526 20.9336 25.3526 21.2897 25.7087L25.0313 29.4501C25.3873 29.8062 25.3873 30.3839 25.0312 30.74C24.8539 30.9173 24.6213 31.0059 24.3871 31.0059Z" fill="#4B50FB"/>
<path fill-rule="evenodd" clip-rule="evenodd" d="M21.7338 37.3936H16.4429C15.9397 37.3936 15.5312 36.9869 15.5312 36.482C15.5312 35.9787 15.9396 35.5703 16.4429 35.5703H21.7338C22.2372 35.5703 22.6454 35.9787 22.6454 36.482C22.6455 36.9869 22.237 37.3936 21.7338 37.3936Z" fill="#4B50FB"/>
<path fill-rule="evenodd" clip-rule="evenodd" d="M20.6456 47.5243C20.4113 47.5243 20.1787 47.4356 20.0014 47.2568C19.6454 46.9007 19.6453 46.323 20.0014 45.9669L23.7429 42.2255C24.099 41.8694 24.675 41.8694 25.0312 42.2255C25.3873 42.5815 25.3873 43.1593 25.0312 43.5154L21.2899 47.2568C21.1125 47.4356 20.8782 47.5243 20.6456 47.5243Z" fill="#4B50FB"/>
<path fill-rule="evenodd" clip-rule="evenodd" d="M30.7711 51.7198C30.2678 51.7198 29.8594 51.3116 29.8594 50.8083L29.8595 45.5158C29.8595 45.0125 30.2677 44.6042 30.771 44.6042C31.2743 44.6042 31.6826 45.0126 31.6826 45.5158L31.6828 50.8083C31.6828 51.3115 31.2743 51.7198 30.7711 51.7198Z" fill="#4B50FB"/>
<path fill-rule="evenodd" clip-rule="evenodd" d="M40.9043 47.5243C40.6701 47.5243 40.4374 47.4356 40.2585 47.2568L36.5171 43.5154C36.161 43.1593 36.161 42.5816 36.5171 42.2255C36.8732 41.8694 37.4509 41.8694 37.807 42.2255L41.5484 45.9669C41.9045 46.323 41.9045 46.9007 41.5484 47.2568C41.3713 47.4356 41.1369 47.5243 40.9043 47.5243Z" fill="#4B50FB"/>
<path fill-rule="evenodd" clip-rule="evenodd" d="M45.0948 37.3936H39.8024C39.2991 37.3936 38.8906 36.9869 38.8906 36.482C38.8906 35.9787 39.2989 35.5703 39.8022 35.5703H45.0947C45.5981 35.5703 46.0063 35.9787 46.0063 36.482C46.0064 36.9869 45.598 37.3936 45.0948 37.3936Z" fill="#4B50FB"/>
<path fill-rule="evenodd" clip-rule="evenodd" d="M37.1628 31.0059C36.9287 31.0059 36.696 30.9173 36.5171 30.74C36.161 30.3839 36.161 29.8062 36.5171 29.4502L40.2587 25.7087C40.6147 25.3526 41.1923 25.3526 41.5484 25.7088C41.9045 26.0648 41.9045 26.6409 41.5484 26.997L37.807 30.74C37.6281 30.9173 37.3955 31.0059 37.1628 31.0059Z" fill="#4B50FB"/>
<path fill-rule="evenodd" clip-rule="evenodd" d="M13.7672 47.2064C13.1326 47.2064 12.6162 47.7228 12.6162 48.3574V52.9171C12.6162 53.5516 13.1326 54.068 13.7671 54.068H47.7627C48.3972 54.068 48.9136 53.5516 48.9136 52.9171L48.9137 48.3574C48.9137 47.7228 48.3972 47.2064 47.7627 47.2064H13.7672ZM47.7627 55.442H13.7672C12.3742 55.442 11.2422 54.309 11.2422 52.9171V48.3574C11.2422 46.9655 12.3741 45.8324 13.7671 45.8324H47.7627C49.1547 45.8324 50.2876 46.9655 50.2876 48.3574L50.2877 52.9171C50.2877 54.309 49.1546 55.442 47.7627 55.442Z" fill="#CADAF7"/>
<path fill-rule="evenodd" clip-rule="evenodd" d="M17.0932 55.4419C16.7141 55.4419 16.4062 55.1342 16.4062 54.7549V46.5194C16.4062 46.1401 16.7139 45.8323 17.0932 45.8323C17.4726 45.8323 17.7802 46.1401 17.7802 46.5194L17.7802 54.7549C17.7802 55.1342 17.4725 55.4419 17.0932 55.4419Z" fill="#CADAF7"/>
<path fill-rule="evenodd" clip-rule="evenodd" d="M22.2573 55.4419C21.8781 55.4419 21.5703 55.1342 21.5703 54.7549L21.5704 46.5194C21.5704 46.1401 21.878 45.8323 22.2573 45.8323C22.6366 45.8323 22.9443 46.1401 22.9443 46.5194L22.9443 54.7549C22.9443 55.1342 22.6365 55.4419 22.2573 55.4419Z" fill="#CADAF7"/>
<path fill-rule="evenodd" clip-rule="evenodd" d="M27.4214 55.4419C27.0421 55.4419 26.7344 55.1342 26.7344 54.7549L26.7345 46.5194C26.7345 46.1401 27.042 45.8323 27.4213 45.8323C27.8007 45.8323 28.1084 46.1401 28.1084 46.5194L28.1084 54.7549C28.1084 55.1342 27.8006 55.4419 27.4214 55.4419Z" fill="#CADAF7"/>
<path fill-rule="evenodd" clip-rule="evenodd" d="M32.5933 55.4419C32.214 55.4419 31.9062 55.1342 31.9062 54.7549L31.9063 46.5194C31.9063 46.1401 32.214 45.8323 32.5932 45.8323C32.9725 45.8323 33.2802 46.1401 33.2802 46.5194L33.2804 54.7549C33.2804 55.1342 32.9725 55.4419 32.5933 55.4419Z" fill="#CADAF7"/>
<defs>
<linearGradient id="paint0_linear_3696_1094" x1="56.5957" y1="5.5" x2="-6.6034" y2="14.0206" gradientUnits="userSpaceOnUse">
<stop stop-color="#A5A9F7"/>
<stop offset="0.310786" stop-color="#4E4EFF"/>
<stop offset="0.549372" stop-color="#385CE5"/>
<stop offset="0.981432" stop-color="#70EFC0"/>
</linearGradient>
<linearGradient id="paint1_linear_3696_1094" x1="56.5957" y1="5.5" x2="-6.6034" y2="14.0206" gradientUnits="userSpaceOnUse">
<stop stop-color="#A5A9F7"/>
<stop offset="0.310786" stop-color="#4E4EFF"/>
<stop offset="0.549372" stop-color="#385CE5"/>
<stop offset="0.981432" stop-color="#70EFC0"/>
</linearGradient>
</defs>
</svg>
