<svg width="18" height="16" viewBox="0 0 18 16" fill="none" xmlns="http://www.w3.org/2000/svg">
<path d="M7.57887 16C7.57635 16 7.57341 16 7.57089 16C7.46679 15.9979 7.36856 15.9538 7.29804 15.8779L0.100757 8.10975C-0.0226536 7.97642 -0.0339872 7.77559 0.0738924 7.62934C0.181772 7.48351 0.378222 7.43351 0.543609 7.51018L7.13098 10.5718C7.18639 10.5976 7.25187 10.5851 7.29426 10.5414L17.3426 0.116996C17.4786 -0.0242506 17.7011 -0.039667 17.8555 0.0819972C18.01 0.203661 18.0457 0.42199 17.9378 0.585737L7.94238 15.7846C7.92811 15.8067 7.91132 15.8267 7.89285 15.8454L7.84877 15.8892C7.77699 15.96 7.67961 16 7.57887 16Z" fill="#4B50FB"/>
</svg>
