<svg width="61" height="61" viewBox="0 0 61 61" fill="none" xmlns="http://www.w3.org/2000/svg">
<path d="M43.9899 0H17.0096C14.2829 0 12.0625 2.21949 12.0625 4.94728V56.0529C12.0625 58.7794 14.2829 61 17.0096 61H43.9899C46.7177 61 48.9371 58.7796 48.9371 56.0529V4.94728C48.9371 2.21949 46.7176 0 43.9899 0ZM16.3691 4.94728C16.3691 4.59414 16.6565 4.30677 17.0096 4.30677H43.9899C44.3431 4.30677 44.6304 4.59414 44.6304 4.94728V50.5021H16.3691V4.94728ZM27.5592 55.9058C27.5592 54.2829 28.8757 52.9662 30.4977 52.9662C32.1236 52.9662 33.44 54.2829 33.44 55.9058C33.44 57.5285 32.1236 58.8472 30.4977 58.8472C28.8757 58.8471 27.5592 57.5285 27.5592 55.9058Z" fill="url(#paint0_linear_3774_10495)"/>
<rect x="16.0977" y="4.23633" width="28.8056" height="46.5972" rx="1" fill="white"/>
<path d="M26.5728 33.3908C26.6644 33.6559 26.901 33.8437 27.1802 33.8737C27.4582 33.9014 27.7286 33.7686 27.8738 33.5283L29.5802 30.7113L34.8761 36.0074C35.0114 36.1424 35.1953 36.2176 35.3869 36.2176C35.5785 36.2176 35.7625 36.1424 35.898 36.0074L38.5446 33.3581C38.8265 33.075 38.8265 32.6193 38.5446 32.3365L33.2497 27.043L36.0694 25.3354C36.3085 25.1899 36.4438 24.9194 36.4136 24.6415C36.3849 24.3613 36.1971 24.1261 35.9328 24.0331L22.9884 19.526C22.7256 19.4361 22.4351 19.5012 22.2397 19.6989C22.0431 19.8943 21.9769 20.1848 22.0669 20.4476L26.5728 33.3908Z" fill="#4B50FB"/>
<defs>
<linearGradient id="paint0_linear_3774_10495" x1="46.5172" y1="4.57499" x2="4.28348" y2="7.3455" gradientUnits="userSpaceOnUse">
<stop stop-color="#A5A9F7"/>
<stop offset="0.310786" stop-color="#4E4EFF"/>
<stop offset="0.549372" stop-color="#385CE5"/>
<stop offset="0.981432" stop-color="#70EFC0"/>
</linearGradient>
</defs>
</svg>
