<svg width="61" height="61" viewBox="0 0 61 61" fill="none" xmlns="http://www.w3.org/2000/svg">
<path d="M45.7163 0H15.2809C11.003 0 7.52344 3.47957 7.52344 7.75759V53.2425C7.52344 57.5206 11.003 61 15.2809 61H45.7163C49.9942 61 53.4736 57.5206 53.4736 53.2425V7.75759C53.4737 3.47957 49.9943 0 45.7163 0ZM13.6861 7.75759C13.6861 6.87793 14.4012 6.16265 15.2809 6.16265H45.7163C46.5959 6.16265 47.311 6.87793 47.311 7.75759V50.6105H13.6861V7.75759ZM27.5783 55.68C27.5783 54.0681 28.8862 52.7602 30.4992 52.7602C32.1098 52.7602 33.418 54.0682 33.418 55.68C33.418 57.2939 32.1098 58.6009 30.4992 58.6009C28.8862 58.6009 27.5783 57.2938 27.5783 55.68Z" fill="url(#paint0_linear_3774_10487)"/>
<rect x="12.707" y="5.93066" width="35.5833" height="44.9028" rx="1" fill="white"/>
<path d="M26.5689 34.2379C26.6605 34.5031 26.8971 34.6909 27.1763 34.7209C27.4543 34.7486 27.7246 34.6158 27.8699 34.3755L29.5763 31.5584L34.8722 36.8546C35.0075 36.9896 35.1914 37.0648 35.383 37.0648C35.5746 37.0648 35.7586 36.9896 35.8941 36.8546L38.5407 34.2053C38.8226 33.9222 38.8226 33.4665 38.5407 33.1837L33.2458 27.8902L36.0655 26.1825C36.3046 26.0371 36.4399 25.7666 36.4096 25.4886C36.381 25.2085 36.1932 24.9733 35.9289 24.8803L22.9845 20.3732C22.7217 20.2832 22.4312 20.3483 22.2358 20.5461C22.0392 20.7414 21.973 21.032 22.063 21.2948L26.5689 34.2379Z" fill="#4B50FB"/>
<defs>
<linearGradient id="paint0_linear_3774_10487" x1="51.5" y1="3.00001" x2="-3.39938" y2="8.17052" gradientUnits="userSpaceOnUse">
<stop stop-color="#A5A9F7"/>
<stop offset="0.310786" stop-color="#4E4EFF"/>
<stop offset="0.549372" stop-color="#385CE5"/>
<stop offset="0.981432" stop-color="#70EFC0"/>
</linearGradient>
</defs>
</svg>
